  0
SECTION
  2
HEADER
  9
$ACADVER
  1
AC1014
  9
$ACADMAINTVER
 70
     9
  9
$DWGCODEPAGE
  3
ANSI_1252
  9
$INSBASE
 10
0.0
 20
0.0
 30
0.0
  9
$EXTMIN
 10
1.000000000000000E+20
 20
1.000000000000000E+20
 30
1.000000000000000E+20
  9
$EXTMAX
 10
-1.000000000000000E+20
 20
-1.000000000000000E+20
 30
-1.000000000000000E+20
  9
$LIMMIN
 10
0.0
 20
0.0
  9
$LIMMAX
 10
12.0
 20
9.0
  9
$ORTHOMODE
 70
     0
  9
$REGENMODE
 70
     1
  9
$FILLMODE
 70
     1
  9
$QTEXTMODE
 70
     0
  9
$MIRRTEXT
 70
     1
  9
$DRAGMODE
 70
     2
  9
$LTSCALE
 40
1.0
  9
$OSMODE
 70
    37
  9
$ATTMODE
 70
     1
  9
$TEXTSIZE
 40
0.2
  9
$TRACEWID
 40
0.05
  9
$TEXTSTYLE
  7
STANDARD
  9
$CLAYER
  8
0
  9
$CELTYPE
  6
BYLAYER
  9
$CECOLOR
 62
   256
  9
$CELTSCALE
 40
1.0
  9
$DELOBJ
 70
     1
  9
$DISPSILH
 70
     0
  9
$DIMSCALE
 40
1.0
  9
$DIMASZ
 40
0.18
  9
$DIMEXO
 40
0.0625
  9
$DIMDLI
 40
0.38
  9
$DIMRND
 40
0.0
  9
$DIMDLE
 40
0.0
  9
$DIMEXE
 40
0.18
  9
$DIMTP
 40
0.0
  9
$DIMTM
 40
0.0
  9
$DIMTXT
 40
0.18
  9
$DIMCEN
 40
0.09
  9
$DIMTSZ
 40
0.0
  9
$DIMTOL
 70
     0
  9
$DIMLIM
 70
     0
  9
$DIMTIH
 70
     1
  9
$DIMTOH
 70
     1
  9
$DIMSE1
 70
     0
  9
$DIMSE2
 70
     0
  9
$DIMTAD
 70
     0
  9
$DIMZIN
 70
     0
  9
$DIMBLK
  1

  9
$DIMASO
 70
     1
  9
$DIMSHO
 70
     1
  9
$DIMPOST
  1

  9
$DIMAPOST
  1

  9
$DIMALT
 70
     0
  9
$DIMALTD
 70
     2
  9
$DIMALTF
 40
25.4
  9
$DIMLFAC
 40
1.0
  9
$DIMTOFL
 70
     0
  9
$DIMTVP
 40
0.0
  9
$DIMTIX
 70
     0
  9
$DIMSOXD
 70
     0
  9
$DIMSAH
 70
     0
  9
$DIMBLK1
  1

  9
$DIMBLK2
  1

  9
$DIMSTYLE
  2
STANDARD
  9
$DIMCLRD
 70
     0
  9
$DIMCLRE
 70
     0
  9
$DIMCLRT
 70
     0
  9
$DIMTFAC
 40
1.0
  9
$DIMGAP
 40
0.09
  9
$DIMJUST
 70
     0
  9
$DIMSD1
 70
     0
  9
$DIMSD2
 70
     0
  9
$DIMTOLJ
 70
     1
  9
$DIMTZIN
 70
     0
  9
$DIMALTZ
 70
     0
  9
$DIMALTTZ
 70
     0
  9
$DIMFIT
 70
     3
  9
$DIMUPT
 70
     0
  9
$DIMUNIT
 70
     2
  9
$DIMDEC
 70
     4
  9
$DIMTDEC
 70
     4
  9
$DIMALTU
 70
     2
  9
$DIMALTTD
 70
     2
  9
$DIMTXSTY
  7
STANDARD
  9
$DIMAUNIT
 70
     0
  9
$LUNITS
 70
     2
  9
$LUPREC
 70
     4
  9
$SKETCHINC
 40
0.1
  9
$FILLETRAD
 40
0.5
  9
$AUNITS
 70
     0
  9
$AUPREC
 70
     0
  9
$MENU
  1
.
  9
$ELEVATION
 40
0.0
  9
$PELEVATION
 40
0.0
  9
$THICKNESS
 40
0.0
  9
$LIMCHECK
 70
     0
  9
$CHAMFERA
 40
0.0
  9
$CHAMFERB
 40
0.0
  9
$CHAMFERC
 40
0.0
  9
$CHAMFERD
 40
0.0
  9
$SKPOLY
 70
     0
  9
$TDCREATE
 40
2459977.047806435
  9
$TDUPDATE
 40
2459977.04780647
  9
$TDINDWG
 40
0.0000000116
  9
$TDUSRTIMER
 40
0.0000000116
  9
$USRTIMER
 70
     1
  9
$ANGBASE
 50
0.0
  9
$ANGDIR
 70
     0
  9
$PDMODE
 70
     0
  9
$PDSIZE
 40
0.0
  9
$PLINEWID
 40
0.0
  9
$COORDS
 70
     1
  9
$SPLFRAME
 70
     0
  9
$SPLINETYPE
 70
     6
  9
$SPLINESEGS
 70
     8
  9
$ATTDIA
 70
     0
  9
$ATTREQ
 70
     1
  9
$HANDLING
 70
     1
  9
$HANDSEED
  5
1000012E
  9
$SURFTAB1
 70
     6
  9
$SURFTAB2
 70
     6
  9
$SURFTYPE
 70
     6
  9
$SURFU
 70
     6
  9
$SURFV
 70
     6
  9
$UCSNAME
  2

  9
$UCSORG
 10
0.0
 20
0.0
 30
0.0
  9
$UCSXDIR
 10
1.0
 20
0.0
 30
0.0
  9
$UCSYDIR
 10
0.0
 20
1.0
 30
0.0
  9
$PUCSNAME
  2

  9
$PUCSORG
 10
0.0
 20
0.0
 30
0.0
  9
$PUCSXDIR
 10
1.0
 20
0.0
 30
0.0
  9
$PUCSYDIR
 10
0.0
 20
1.0
 30
0.0
  9
$USERI1
 70
     0
  9
$USERI2
 70
     0
  9
$USERI3
 70
     0
  9
$USERI4
 70
     0
  9
$USERI5
 70
     0
  9
$USERR1
 40
0.0
  9
$USERR2
 40
0.0
  9
$USERR3
 40
0.0
  9
$USERR4
 40
0.0
  9
$USERR5
 40
0.0
  9
$WORLDVIEW
 70
     1
  9
$SHADEDGE
 70
     3
  9
$SHADEDIF
 70
    70
  9
$TILEMODE
 70
     1
  9
$MAXACTVP
 70
    64
  9
$PINSBASE
 10
0.0
 20
0.0
 30
0.0
  9
$PLIMCHECK
 70
     0
  9
$PEXTMIN
 10
1.000000000000000E+20
 20
1.000000000000000E+20
 30
1.000000000000000E+20
  9
$PEXTMAX
 10
-1.000000000000000E+20
 20
-1.000000000000000E+20
 30
-1.000000000000000E+20
  9
$PLIMMIN
 10
0.0
 20
0.0
  9
$PLIMMAX
 10
12.0
 20
9.0
  9
$UNITMODE
 70
     0
  9
$VISRETAIN
 70
     1
  9
$PLINEGEN
 70
     0
  9
$PSLTSCALE
 70
     1
  9
$TREEDEPTH
 70
  3020
  9
$PICKSTYLE
 70
     1
  9
$CMLSTYLE
  2
STANDARD
  9
$CMLJUST
 70
     0
  9
$CMLSCALE
 40
1.0
  9
$PROXYGRAPHICS
 70
     1
  9
$MEASUREMENT
 70
     0
  0
ENDSEC
  0
SECTION
  2
CLASSES
  0
CLASS
  1
ACDBDICTIONARYWDFLT
  2
AcDbDictionaryWithDefault
  3
ObjectDBX Classes
 90
        0
280
     0
281
     0
  0
CLASS
  1
VISUALSTYLE
  2
AcDbVisualStyle
  3
ObjectDBX Classes
 90
     4095
280
     0
281
     0
  0
CLASS
  1
MATERIAL
  2
AcDbMaterial
  3
ObjectDBX Classes
 90
     1153
280
     0
281
     0
  0
CLASS
  1
SCALE
  2
AcDbScale
  3
ObjectDBX Classes
 90
     1153
280
     0
281
     0
  0
CLASS
  1
TABLESTYLE
  2
AcDbTableStyle
  3
ObjectDBX Classes
 90
     4095
280
     0
281
     0
  0
CLASS
  1
MLEADERSTYLE
  2
AcDbMLeaderStyle
  3
ACDB_MLEADERSTYLE_CLASS
 90
     4095
280
     0
281
     0
  0
CLASS
  1
SUN
  2
AcDbSun
  3
SCENEOE
 90
     1153
280
     0
281
     0
  0
CLASS
  1
SORTENTSTABLE
  2
AcDbSortentsTable
  3
ObjectDBX Classes
 90
        0
280
     0
281
     0
  0
CLASS
  1
DICTIONARYVAR
  2
AcDbDictionaryVar
  3
ObjectDBX Classes
 90
        0
280
     0
281
     0
  0
CLASS
  1
XRECORD
  2
AcDbXrecord
  3
ObjectDBX Classes
 90
        0
280
     0
281
     0
  0
CLASS
  1
LWPOLYLINE
  2
AcDbPolyline
  3
ObjectDBX Classes
 90
        0
280
     0
281
     1
  0
CLASS
  1
HATCH
  2
AcDbHatch
  3
ObjectDBX Classes
 90
        0
280
     0
281
     1
  0
CLASS
  1
ACDBPLACEHOLDER
  2
AcDbPlaceHolder
  3
ObjectDBX Classes
 90
        0
280
     0
281
     0
  0
CLASS
  1
LAYOUT
  2
AcDbLayout
  3
ObjectDBX Classes
 90
        0
280
     0
281
     0
  0
ENDSEC
  0
SECTION
  2
TABLES
  0
TABLE
  2
VPORT
  5
8
102
{ACAD_XDICTIONARY
360
10000123
102
}
330
0
100
AcDbSymbolTable
 70
     1
  0
VPORT
  5
29
330
8
100
AcDbSymbolTableRecord
100
AcDbViewportTableRecord
  2
*ACTIVE
 70
     0
 10
0.0
 20
0.0
 11
1.0
 21
1.0
 12
10.42990654205607
 22
4.5
 13
0.0
 23
0.0
 14
0.5
 24
0.5
 15
0.5
 25
0.5
 16
0.0
 26
0.0
 36
1.0
 17
0.0
 27
0.0
 37
0.0
 40
9.0
 41
1.972972972850329
 42
50.0
 43
0.0
 44
0.0
 50
0.0
 51
0.0
 71
     0
 72
   100
 73
     1
 74
     3
 75
     0
 76
     0
 77
     0
 78
     0
  0
ENDTAB
  0
TABLE
  2
LTYPE
  5
5
330
0
100
AcDbSymbolTable
 70
     7
  0
LTYPE
  5
14
330
5
100
AcDbSymbolTableRecord
100
AcDbLinetypeTableRecord
  2
BYBLOCK
 70
     0
  3

 72
    65
 73
     0
 40
0.0
  0
LTYPE
  5
15
330
5
100
AcDbSymbolTableRecord
100
AcDbLinetypeTableRecord
  2
BYLAYER
 70
     0
  3

 72
    65
 73
     0
 40
0.0
  0
LTYPE
  5
16
330
5
100
AcDbSymbolTableRecord
100
AcDbLinetypeTableRecord
  2
CONTINUOUS
 70
     0
  3
Solid line
 72
    65
 73
     0
 40
0.0
  0
LTYPE
  5
10000024
330
5
100
AcDbSymbolTableRecord
100
AcDbLinetypeTableRecord
  2
ONS_PHANTOM
 70
     0
  3
Onshape Phantom line ______ __ __ ______
 72
    65
 73
     6
 40
0.4999999999999999
 49
0.25
 74
     0
 49
-0.05
 74
     0
 49
0.05
 74
     0
 49
-0.05
 74
     0
 49
0.05
 74
     0
 49
-0.05
 74
     0
  0
LTYPE
  5
10000025
330
5
100
AcDbSymbolTableRecord
100
AcDbLinetypeTableRecord
  2
CENTER
 70
     0
  3
Center line ____ _ ____ _ ____ _
 72
    65
 73
     4
 40
0.7199999999999999
 49
0.45
 74
     0
 49
-0.09
 74
     0
 49
0.09
 74
     0
 49
-0.09
 74
     0
  0
LTYPE
  5
10000026
330
5
100
AcDbSymbolTableRecord
100
AcDbLinetypeTableRecord
  2
DASHED
 70
     0
  3
Dashed line __ __ __ __ __
 72
    65
 73
     2
 40
0.75
 49
0.5
 74
     0
 49
-0.25
 74
     0
  0
LTYPE
  5
10000027
330
5
100
AcDbSymbolTableRecord
100
AcDbLinetypeTableRecord
  2
ONS_DASHDOT
 70
     0
  3
Onshape Dashed with Dot _ . ____ . ____
 72
    65
 73
     4
 40
0.71
 49
0.5
 74
     0
 49
-0.1
 74
     0
 49
0.01
 74
     0
 49
-0.1
 74
     0
  0
LTYPE
  5
10000028
330
5
100
AcDbSymbolTableRecord
100
AcDbLinetypeTableRecord
  2
ONS_DOTTED
 70
     0
  3
Onshape Dotted line . . . . . . .
 72
    65
 73
     2
 40
0.11
 49
0.01
 74
     0
 49
-0.1
 74
     0
  0
LTYPE
  5
10000029
330
5
100
AcDbSymbolTableRecord
100
AcDbLinetypeTableRecord
  2
HIDDEN
 70
     0
  3
Hidden line ____ ____ ____ ____ 
 72
    65
 73
     2
 40
0.15
 49
0.1
 74
     0
 49
-0.05
 74
     0
  0
ENDTAB
  0
TABLE
  2
LAYER
  5
2
330
0
100
AcDbSymbolTable
 70
    39
  0
LAYER
  5
10
330
2
100
AcDbSymbolTableRecord
100
AcDbLayerTableRecord
  2
0
 70
     0
 62
     7
  6
CONTINUOUS
  0
LAYER
  5
1000002A
330
2
100
AcDbSymbolTableRecord
100
AcDbLayerTableRecord
  2
SECTION_CUTTING_LINE
 70
     0
 62
     7
  6
ONS_PHANTOM
  0
LAYER
  5
1000002B
330
2
100
AcDbSymbolTableRecord
100
AcDbLayerTableRecord
  2
DETAIL_VIEW_BORDER
 70
     0
 62
     7
  6
CONTINUOUS
  0
LAYER
  5
1000002C
330
2
100
AcDbSymbolTableRecord
100
AcDbLayerTableRecord
  2
DETAIL_VIEW_PARENT_BORDER
 70
     0
 62
     7
  6
ONS_PHANTOM
  0
LAYER
  5
1000002D
330
2
100
AcDbSymbolTableRecord
100
AcDbLayerTableRecord
  2
TEXT
 70
     0
 62
     7
  6
CONTINUOUS
  0
LAYER
  5
1000002E
330
2
100
AcDbSymbolTableRecord
100
AcDbLayerTableRecord
  2
SKETCHED_GEOMETRY
 70
     0
 62
    -7
  6
CONTINUOUS
  0
LAYER
  5
1000002F
330
2
100
AcDbSymbolTableRecord
100
AcDbLayerTableRecord
  2
VIRTUAL_SHARPS
 70
     0
 62
    -7
  6
CONTINUOUS
  0
LAYER
  5
10000030
330
2
100
AcDbSymbolTableRecord
100
AcDbLayerTableRecord
  2
CENTERLINES
 70
     0
 62
    -7
  6
CENTER
  0
LAYER
  5
10000031
330
2
100
AcDbSymbolTableRecord
100
AcDbLayerTableRecord
  2
CENTERMARKS
 70
     0
 62
    -7
  6
CONTINUOUS
  0
LAYER
  5
10000032
330
2
100
AcDbSymbolTableRecord
100
AcDbLayerTableRecord
  2
TABLES
 70
     0
 62
     7
  6
CONTINUOUS
  0
LAYER
  5
10000033
330
2
100
AcDbSymbolTableRecord
100
AcDbLayerTableRecord
  2
IMAGES
 70
     0
 62
    -7
  6
CONTINUOUS
  0
LAYER
  5
10000034
330
2
100
AcDbSymbolTableRecord
100
AcDbLayerTableRecord
  2
ANNOTATION_LINES
 70
     0
 62
    -7
  6
CONTINUOUS
  0
LAYER
  5
10000035
330
2
100
AcDbSymbolTableRecord
100
AcDbLayerTableRecord
  2
ANNOTATION_TEXT
 70
     0
 62
    -7
  6
CONTINUOUS
  0
LAYER
  5
10000036
330
2
100
AcDbSymbolTableRecord
100
AcDbLayerTableRecord
  2
SIDE_THREAD_SYMBOLS
 70
     0
 62
     7
  6
HIDDEN
  0
LAYER
  5
10000037
330
2
100
AcDbSymbolTableRecord
100
AcDbLayerTableRecord
  2
SIDE_THREAD_SYMBOLS_HIDDEN
 70
     0
 62
    -7
  6
HIDDEN
  0
LAYER
  5
10000038
330
2
100
AcDbSymbolTableRecord
100
AcDbLayerTableRecord
  2
SURFACE_THREAD_SYMBOLS
 70
     0
 62
     7
  6
HIDDEN
  0
LAYER
  5
10000039
330
2
100
AcDbSymbolTableRecord
100
AcDbLayerTableRecord
  2
SURFACE_THREAD_SYMBOLS_ON_
 70
     0
 62
     7
  6
HIDDEN
  0
LAYER
  5
1000003A
330
2
100
AcDbSymbolTableRecord
100
AcDbLayerTableRecord
  2
SURFACE_THREAD_SYMBOLS_HID
 70
     0
 62
    -7
  6
HIDDEN
  0
LAYER
  5
1000003B
330
2
100
AcDbSymbolTableRecord
100
AcDbLayerTableRecord
  2
BLIND_THREAD_SYMBOLS
 70
     0
 62
     7
  6
CONTINUOUS
  0
LAYER
  5
1000003C
330
2
100
AcDbSymbolTableRecord
100
AcDbLayerTableRecord
  2
BLIND_THREAD_SYMBOLS_HIDDE
 70
     0
 62
    -7
  6
HIDDEN
  0
LAYER
  5
1000003D
330
2
100
AcDbSymbolTableRecord
100
AcDbLayerTableRecord
  2
EXPLODE_LINES
 70
     0
 62
     7
  6
ONS_PHANTOM
  0
LAYER
  5
1000003E
330
2
100
AcDbSymbolTableRecord
100
AcDbLayerTableRecord
  2
HIDDEN_EXPLODE_LINES
 70
     0
 62
    -7
  6
ONS_PHANTOM
  0
LAYER
  5
1000003F
330
2
100
AcDbSymbolTableRecord
100
AcDbLayerTableRecord
  2
BREAK_LINES
 70
     0
 62
    -7
  6
CONTINUOUS
  0
LAYER
  5
10000040
330
2
100
AcDbSymbolTableRecord
100
AcDbLayerTableRecord
  2
SHEETMETAL_BEND_LINES_UP
 70
     0
 62
     7
  6
CENTER
  0
LAYER
  5
10000041
330
2
100
AcDbSymbolTableRecord
100
AcDbLayerTableRecord
  2
SHEETMETAL_BEND_LINES_DOWN
 70
     0
 62
     7
  6
CENTER
  0
LAYER
  5
10000042
330
2
100
AcDbSymbolTableRecord
100
AcDbLayerTableRecord
  2
SHEETMETAL_BEND_TANGENT_LI
 70
     0
 62
     7
  6
CONTINUOUS
  0
LAYER
  5
10000043
330
2
100
AcDbSymbolTableRecord
100
AcDbLayerTableRecord
  2
SHEETMETAL_CUT_LINES
 70
     0
 62
     7
  6
CONTINUOUS
  0
LAYER
  5
10000044
330
2
100
AcDbSymbolTableRecord
100
AcDbLayerTableRecord
  2
REGION_ASSOC_POINTS
 70
     0
 62
    -7
  6
CONTINUOUS
  0
LAYER
  5
10000045
330
2
100
AcDbSymbolTableRecord
100
AcDbLayerTableRecord
  2
HIDDEN
 70
     0
 62
    -7
  6
HIDDEN
  0
LAYER
  5
10000046
330
2
100
AcDbSymbolTableRecord
100
AcDbLayerTableRecord
  2
VISIBLE
 70
     0
 62
     7
  6
CONTINUOUS
  0
LAYER
  5
10000047
330
2
100
AcDbSymbolTableRecord
100
AcDbLayerTableRecord
  2
MODELSKETCH_VISIBLE
 70
     0
 62
     7
  6
CONTINUOUS
  0
LAYER
  5
10000048
330
2
100
AcDbSymbolTableRecord
100
AcDbLayerTableRecord
  2
MODELSKETCH_POINT
 70
     0
 62
     7
  6
CONTINUOUS
  0
LAYER
  5
10000049
330
2
100
AcDbSymbolTableRecord
100
AcDbLayerTableRecord
  2
MODELSKETCH_CONSTRUCTION
 70
     0
 62
    -7
  6
CENTER
  0
LAYER
  5
1000004A
330
2
100
AcDbSymbolTableRecord
100
AcDbLayerTableRecord
  2
HIDDEN_BASE_VIEW
 70
     0
 62
     7
  6
CONTINUOUS
  0
LAYER
  5
1000004B
330
2
100
AcDbSymbolTableRecord
100
AcDbLayerTableRecord
  2
TANGENT_LINES
 70
     0
 62
    -7
  6
CONTINUOUS
  0
LAYER
  5
1000004C
330
2
100
AcDbSymbolTableRecord
100
AcDbLayerTableRecord
  2
TANGENT_HIDDEN
 70
     0
 62
    -7
  6
HIDDEN
  0
LAYER
  5
1000004D
330
2
100
AcDbSymbolTableRecord
100
AcDbLayerTableRecord
  2
INVISIBLE_LINES
 70
     0
 62
    -7
  6
CONTINUOUS
  0
LAYER
  5
1000004E
330
2
100
AcDbSymbolTableRecord
100
AcDbLayerTableRecord
  2
VIEW_HATCHES
 70
     0
 62
    -7
  6
CONTINUOUS
  0
LAYER
  5
1000004F
330
2
100
AcDbSymbolTableRecord
100
AcDbLayerTableRecord
  2
SECTION_JOG_LINES
 70
     0
 62
    -7
  6
CONTINUOUS
  0
ENDTAB
  0
TABLE
  2
STYLE
  5
3
330
0
100
AcDbSymbolTable
 70
     2
  0
STYLE
  5
11
330
3
100
AcDbSymbolTableRecord
100
AcDbTextStyleTableRecord
  2
STANDARD
 70
     0
 40
0.0
 41
1.0
 50
0.0
 71
     0
 42
0.2
  3
txt
  4

  0
STYLE
  5
10000004
330
3
100
AcDbSymbolTableRecord
100
AcDbTextStyleTableRecord
  2
TTFSTYLE
 70
     0
 40
0.0
 41
1.0
 50
0.0
 71
     0
 42
0.2
  3
Verdana.ttf
  4

1001
ACAD
1000
Verdana
1071
       34
  0
ENDTAB
  0
TABLE
  2
VIEW
  5
6
330
0
100
AcDbSymbolTable
 70
     0
  0
ENDTAB
  0
TABLE
  2
UCS
  5
7
330
0
100
AcDbSymbolTable
 70
     0
  0
ENDTAB
  0
TABLE
  2
APPID
  5
9
330
0
100
AcDbSymbolTable
 70
     2
  0
APPID
  5
12
330
9
100
AcDbSymbolTableRecord
100
AcDbRegAppTableRecord
  2
ACAD
 70
     0
  0
APPID
  5
1000012D
330
9
100
AcDbSymbolTableRecord
100
AcDbRegAppTableRecord
  2
ACAD_MLEADERVER
 70
     0
  0
ENDTAB
  0
TABLE
  2
DIMSTYLE
  5
A
330
0
100
AcDbSymbolTable
 70
     1
  0
DIMSTYLE
105
27
330
A
100
AcDbSymbolTableRecord
100
AcDbDimStyleTableRecord
  2
STANDARD
 70
     0
  3

  4

  5

  6

  7

 40
1.0
 41
0.18
 42
0.0625
 43
0.38
 44
0.18
 45
0.0
 46
0.0
 47
0.0
 48
0.0
140
0.18
141
0.09
142
0.0
143
25.4
144
1.0
145
0.0
146
1.0
147
0.09
 71
     0
 72
     0
 73
     1
 74
     1
 75
     0
 76
     0
 77
     0
 78
     0
170
     0
171
     2
172
     0
173
     0
174
     0
175
     0
176
     0
177
     0
178
     0
270
     2
271
     4
272
     4
273
     2
274
     2
340
11
275
     0
280
     0
281
     0
282
     0
283
     1
284
     0
285
     0
286
     0
287
     3
288
     0
  0
ENDTAB
  0
TABLE
  2
BLOCK_RECORD
  5
1
330
0
100
AcDbSymbolTable
 70
     0
  0
BLOCK_RECORD
  5
1F
102
{ACAD_XDICTIONARY
360
100000F8
102
}
330
1
100
AcDbSymbolTableRecord
100
AcDbBlockTableRecord
  2
*MODEL_SPACE
  0
BLOCK_RECORD
  5
1B
330
1
100
AcDbSymbolTableRecord
100
AcDbBlockTableRecord
  2
*PAPER_SPACE
  0
ENDTAB
  0
ENDSEC
  0
SECTION
  2
BLOCKS
  0
BLOCK
  5
20
330
1F
100
AcDbEntity
  8
0
100
AcDbBlockBegin
  2
*MODEL_SPACE
 70
     0
 10
0.0
 20
0.0
 30
0.0
  3
*MODEL_SPACE
  1

  0
ENDBLK
  5
21
330
1F
100
AcDbEntity
  8
0
100
AcDbBlockEnd
  0
BLOCK
  5
1C
330
1B
100
AcDbEntity
 67
     1
  8
0
100
AcDbBlockBegin
  2
*PAPER_SPACE
 70
     0
 10
0.0
 20
0.0
 30
0.0
  3
*PAPER_SPACE
  1

  0
ENDBLK
  5
1D
330
1B
100
AcDbEntity
 67
     1
  8
0
100
AcDbBlockEnd
  0
ENDSEC
  0
SECTION
  2
ENTITIES
  0
SPLINE
  5
10000050
102
{ACAD_XDICTIONARY
360
10000051
102
}
330
1F
100
AcDbEntity
  8
VISIBLE
100
AcDbSpline
210
0.0
220
0.0
230
1.0
 70
    11
 71
     3
 72
    36
 73
    32
 74
     0
 42
0.000000001
 43
0.00000001
 40
0.0
 40
0.0
 40
0.0
 40
0.0
 40
0.0423410240215886
 40
0.066166655960102
 40
0.0976094762360463
 40
0.1497490031376007
 40
0.1898990604199161
 40
0.2356739046942514
 40
0.2742932574459453
 40
0.3106815471506537
 40
0.3321369314322721
 40
0.3545843179368498
 40
0.3857736256836761
 40
0.4308878355845886
 40
0.4760070050343597
 40
0.5019410164298681
 40
0.5387229411544422
 40
0.5798220463488347
 40
0.6194680495271881
 40
0.6482711170370274
 40
0.6723357301389575
 40
0.7022947149278883
 40
0.7403983322387302
 40
0.7558469255235711
 40
0.7932201411605424
 40
0.8336341997218095
 40
0.8674351870930752
 40
0.8965461520912942
 40
0.9443412428876736
 40
0.981111160461745
 40
1.0
 40
1.0
 40
1.0
 40
1.0
 10
0.0999899540741847
 20
-23.4979696161165
 30
0.0
 10
0.078548685666973
 20
-23.73843019301111
 30
0.0
 10
0.1398098218667595
 20
-24.56222156013229
 30
0.0
 10
-0.3352445646122057
 20
-24.45000604820311
 30
0.0
 10
-0.78988478980355
 20
-24.42888750321521
 30
0.0
 10
-2.356604336966287
 20
-24.15408782771641
 30
0.0
 10
-2.727548683240576
 20
-25.05959641629463
 30
0.0
 10
-3.830873643729921
 20
-25.43609868591764
 30
0.0
 10
-4.535259572638704
 20
-25.55892908697293
 30
0.0
 10
-5.291677071029639
 20
-25.37893666703031
 30
0.0
 10
-5.352164982360414
 20
-25.06212459324463
 30
0.0
 10
-5.134717194223379
 20
-24.82071392021683
 30
0.0
 10
-4.59322674113137
 20
-24.84277935115688
 30
0.0
 10
-3.57737579440287
 20
-24.77304469199084
 30
0.0
 10
-2.670770233527654
 20
-24.08376641847353
 30
0.0
 10
-2.652513161885349
 20
-23.64252438771403
 30
0.0
 10
-3.176820189050193
 20
-23.09676079541108
 30
0.0
 10
-3.915264391339131
 20
-22.67226939011749
 30
0.0
 10
-4.715294583349179
 20
-22.58153263483242
 30
0.0
 10
-5.227263050913842
 20
-22.64073079335822
 30
0.0
 10
-5.302367351048155
 20
-22.18185329026916
 30
0.0
 10
-4.833456630920145
 20
-21.97933950803836
 30
0.0
 10
-4.052126494770645
 20
-22.03891319081152
 30
0.0
 10
-3.953064431897146
 20
-22.0895564526243
 30
0.0
 10
-3.211560807436893
 20
-22.3603077438576
 30
0.0
 10
-2.600549071497177
 20
-22.84477858712333
 30
0.0
 10
-2.269998400317523
 20
-23.43555464409074
 30
0.0
 10
-1.761699949995522
 20
-23.42012245892275
 30
0.0
 10
-0.6812226596721174
 20
-23.3297878291406
 30
0.0
 10
0.1733034282646411
 20
-23.24273035829448
 30
0.0
 10
0.1095551615248591
 20
-23.3906972636594
 30
0.0
 10
0.0999899540741847
 20
-23.4979696161165
 30
0.0
  0
SPLINE
  5
10000053
102
{ACAD_XDICTIONARY
360
10000054
102
}
330
1F
100
AcDbEntity
  8
VISIBLE
100
AcDbSpline
210
0.0
220
0.0
230
1.0
 70
    11
 71
     3
 72
    38
 73
    34
 74
     0
 42
0.000000001
 43
0.00000001
 40
0.0
 40
0.0
 40
0.0
 40
0.0
 40
0.0225884188410058
 40
0.050374765565244
 40
0.0916744405078381
 40
0.1221499075607636
 40
0.1629735660765109
 40
0.197775715064789
 40
0.2340814342177408
 40
0.2670000232051374
 40
0.3019166108488963
 40
0.3242649193035471
 40
0.3423990923845275
 40
0.3641113951890158
 40
0.3965597795879146
 40
0.4332836953316548
 40
0.4758421432291213
 40
0.5114415527720902
 40
0.5306608742510311
 40
0.5506404634838781
 40
0.587381621327454
 40
0.6264325096714668
 40
0.6618931781200247
 40
0.6930609137286641
 40
0.7173782176980864
 40
0.7368263817105986
 40
0.7759909403925672
 40
0.8167982625771447
 40
0.8606242652157683
 40
0.8891578156116037
 40
0.9232622339350053
 40
0.9546618981554907
 40
1.0
 40
1.0
 40
1.0
 40
1.0
 10
-6.92799804717537
 20
-28.33154257826918
 30
0.0
 10
-6.829404960033786
 20
-28.43510620580101
 30
0.0
 10
-6.875979197130243
 20
-28.76653966322425
 30
0.0
 10
-7.445924576962454
 20
-28.67495462399297
 30
0.0
 10
-8.460337835738956
 20
-29.10812560373949
 30
0.0
 10
-8.98381024327009
 20
-29.22004717642738
 30
0.0
 10
-10.06568857596444
 20
-29.4981049998483
 30
0.0
 10
-10.67105697021579
 20
-29.90267006750337
 30
0.0
 10
-11.47495749662423
 20
-30.25740317493134
 30
0.0
 10
-12.12766744954697
 20
-30.34547135147911
 30
0.0
 10
-12.90210320363338
 20
-30.36180058750215
 30
0.0
 10
-13.25341254421074
 20
-30.2223405575778
 30
0.0
 10
-13.23699470437768
 20
-29.95055253271989
 30
0.0
 10
-12.99399012862522
 20
-29.70829722174422
 30
0.0
 10
-12.29191826092423
 20
-29.69138750243501
 30
0.0
 10
-11.47386650658046
 20
-29.51295286948977
 30
0.0
 10
-10.50315813294408
 20
-29.0048639748504
 30
0.0
 10
-9.651498383093573
 20
-28.79732560784923
 30
0.0
 10
-9.63421739468575
 20
-28.41456584115247
 30
0.0
 10
-9.94706455247413
 20
-28.36620086602896
 30
0.0
 10
-10.74538332943833
 20
-28.06351507470627
 30
0.0
 10
-11.62014035355107
 20
-27.75833504193009
 30
0.0
 10
-12.41244343447409
 20
-27.65899945506786
 30
0.0
 10
-13.03818483578966
 20
-27.71125812205849
 30
0.0
 10
-13.3872331304217
 20
-27.33662949156211
 30
0.0
 10
-13.11476413219048
 20
-27.11040325759959
 30
0.0
 10
-12.11558666504085
 20
-26.92892773060516
 30
0.0
 10
-11.16210499806513
 20
-27.12581654989925
 30
0.0
 10
-10.00021442833694
 20
-27.62767645209075
 30
0.0
 10
-9.596632397119407
 20
-27.96101890155586
 30
0.0
 10
-8.753745722998634
 20
-27.8524832530789
 30
0.0
 10
-8.275508816412877
 20
-28.07905422695763
 30
0.0
 10
-7.125888101253662
 20
-28.1236759575254
 30
0.0
 10
-6.92799804717537
 20
-28.33154257826918
 30
0.0
  0
SPLINE
  5
10000056
102
{ACAD_XDICTIONARY
360
10000057
102
}
330
1F
100
AcDbEntity
  8
VISIBLE
100
AcDbSpline
210
0.0
220
0.0
230
1.0
 70
    11
 71
     3
 72
    27
 73
    23
 74
     0
 42
0.000000001
 43
0.00000001
 40
0.0
 40
0.0
 40
0.0
 40
0.0
 40
0.0415584738557751
 40
0.0847072198338317
 40
0.1353809461285212
 40
0.1885107444642679
 40
0.2441310665790889
 40
0.2958523386455884
 40
0.3652342273609526
 40
0.4608179395158941
 40
0.4790520904450968
 40
0.5000331975275115
 40
0.5412336684259873
 40
0.6333068403736457
 40
0.6837736758118682
 40
0.7390047405227995
 40
0.7888907610495142
 40
0.8335158949345838
 40
0.8811983679636533
 40
0.9226538228416459
 40
0.9642922664231615
 40
1.0
 40
1.0
 40
1.0
 40
1.0
 10
-2.893699318405211
 20
-9.739918150301055
 30
0.0
 10
-2.760208076014929
 20
-9.652304790410835
 30
0.0
 10
-2.638310897331881
 20
-9.05632763212471
 30
0.0
 10
-1.807811326359915
 20
-9.14773419836
 30
0.0
 10
-1.057623950928845
 20
-9.720981397451892
 30
0.0
 10
-0.690385324930113
 20
-10.71025088517598
 30
0.0
 10
-0.7884071643836816
 20
-11.84006663730591
 30
0.0
 10
-1.059047122967501
 20
-12.85422069132122
 30
0.0
 10
-0.9936853845140311
 20
-14.34222294904231
 30
0.0
 10
-1.621117971024072
 20
-17.76980019864183
 30
0.0
 10
-1.842566423816537
 20
-17.80773896295547
 30
0.0
 10
-2.030976062671342
 20
-17.7842918862964
 30
0.0
 10
-2.752594523511505
 20
-17.39577161043236
 30
0.0
 10
-2.287251015869181
 20
-14.17142773016888
 30
0.0
 10
-2.826966109803484
 20
-13.48778537052407
 30
0.0
 10
-3.284057619485679
 20
-12.41293574921943
 30
0.0
 10
-3.851473437485
 20
-11.73613241766701
 30
0.0
 10
-4.463417125838308
 20
-11.27316756463487
 30
0.0
 10
-4.439374946110409
 20
-10.33736559625208
 30
0.0
 10
-3.98291063908194
 20
-9.881763688528917
 30
0.0
 10
-3.374677654988784
 20
-9.650787977040212
 30
0.0
 10
-3.008397219359315
 20
-9.815197009760348
 30
0.0
 10
-2.893699318405211
 20
-9.739918150301055
 30
0.0
  0
SPLINE
  5
10000059
102
{ACAD_XDICTIONARY
360
1000005A
102
}
330
1F
100
AcDbEntity
  8
VISIBLE
100
AcDbSpline
210
0.0
220
0.0
230
1.0
 70
    11
 71
     3
 72
    31
 73
    27
 74
     0
 42
0.000000001
 43
0.00000001
 40
0.0
 40
0.0
 40
0.0
 40
0.0
 40
0.051135337183113
 40
0.0931876584082894
 40
0.1267998913499075
 40
0.1623972198330498
 40
0.2041659209514112
 40
0.2468615001009089
 40
0.2586073780988834
 40
0.2983464432564701
 40
0.3470860579612172
 40
0.3906508645922309
 40
0.4554945816429551
 40
0.4990579662864317
 40
0.5105133307069302
 40
0.527245498439431
 40
0.6152905072818011
 40
0.6499859496132959
 40
0.7075570171919388
 40
0.7565459434911769
 40
0.8061652735279052
 40
0.8387137280450373
 40
0.8727625653969072
 40
0.9030724287851085
 40
0.9451204434158592
 40
1.0
 40
1.0
 40
1.0
 40
1.0
 10
-5.379501055544756
 20
-14.2133153799012
 30
0.0
 10
-5.316070347533278
 20
-14.20436737780417
 30
0.0
 10
-4.987030903964031
 20
-15.56158376580109
 30
0.0
 10
-4.187543392402715
 20
-15.85957088936254
 30
0.0
 10
-3.602133034232784
 20
-15.68938411818242
 30
0.0
 10
-3.239858501153949
 20
-15.09763312421159
 30
0.0
 10
-3.464745761558577
 20
-14.29326620275322
 30
0.0
 10
-4.225727764989777
 20
-13.72013016788807
 30
0.0
 10
-4.258486215387911
 20
-13.67343427961359
 30
0.0
 10
-4.851933124981092
 20
-13.05734381063868
 30
0.0
 10
-5.020112188413522
 20
-11.94625639460128
 30
0.0
 10
-5.021111855784124
 20
-11.07782514691666
 30
0.0
 10
-5.193524162412764
 20
-9.196838134305345
 30
0.0
 10
-5.309832355509426
 20
-8.174510023285006
 30
0.0
 10
-5.423575303913212
 20
-8.169993816770823
 30
0.0
 10
-5.730639161990966
 20
-8.140489578394858
 30
0.0
 10
-5.770805920061672
 20
-12.10164095366623
 30
0.0
 10
-6.075060734247486
 20
-12.34105817692851
 30
0.0
 10
-6.690757838592471
 20
-13.97953319920892
 30
0.0
 10
-7.173255697587273
 20
-14.86868390250629
 30
0.0
 10
-7.098285831272312
 20
-16.16441537951484
 30
0.0
 10
-6.706287660954448
 20
-16.5464695473851
 30
0.0
 10
-6.118422208462678
 20
-16.67923400455578
 30
0.0
 10
-5.662586638779183
 20
-16.44276654033819
 30
0.0
 10
-5.329542542012803
 20
-15.77313440193798
 30
0.0
 10
-5.447576271652601
 20
-14.22291857046274
 30
0.0
 10
-5.379501055544756
 20
-14.2133153799012
 30
0.0
  0
SPLINE
  5
1000005C
102
{ACAD_XDICTIONARY
360
1000005D
102
}
330
1F
100
AcDbEntity
  8
VISIBLE
100
AcDbSpline
210
0.0
220
0.0
230
1.0
 70
    11
 71
     3
 72
    19
 73
    15
 74
     0
 42
0.000000001
 43
0.00000001
 40
0.0
 40
0.0
 40
0.0
 40
0.0
 40
0.0703465176541412
 40
0.1486480786426228
 40
0.2099465131182852
 40
0.3268070449807811
 40
0.4323555160280743
 40
0.4883262681487995
 40
0.5565643605107835
 40
0.7186116392856285
 40
0.7613177635269893
 40
0.8321497382841662
 40
0.9136380692663064
 40
1.0
 40
1.0
 40
1.0
 40
1.0
 10
-6.980230723779033
 20
-8.56530243956198
 30
0.0
 10
-6.856409902615908
 20
-8.57584366616416
 30
0.0
 10
-6.67376212088455
 20
-8.709811748104347
 30
0.0
 10
-6.56082561165514
 20
-9.153762474664541
 30
0.0
 10
-6.763473594796427
 20
-9.38045828352427
 30
0.0
 10
-6.349347598568922
 20
-10.22586468105207
 30
0.0
 10
-6.144909030366311
 20
-10.90559704002973
 30
0.0
 10
-6.200108075541952
 20
-11.15458790087645
 30
0.0
 10
-6.732384470756144
 20
-11.33624104445663
 30
0.0
 10
-7.064011575163796
 20
-9.396458353300861
 30
0.0
 10
-7.261078767292084
 20
-9.473852902985843
 30
0.0
 10
-7.515321528477045
 20
-9.189881512711576
 30
0.0
 10
-7.537192151211583
 20
-8.682045020194781
 30
0.0
 10
-7.132241164910646
 20
-8.552361348630638
 30
0.0
 10
-6.980230723779033
 20
-8.56530243956198
 30
0.0
  0
SPLINE
  5
1000005F
102
{ACAD_XDICTIONARY
360
10000060
102
}
330
1F
100
AcDbEntity
  8
VISIBLE
100
AcDbSpline
210
0.0
220
0.0
230
1.0
 70
    11
 71
     3
 72
    21
 73
    17
 74
     0
 42
0.000000001
 43
0.00000001
 40
0.0
 40
0.0
 40
0.0
 40
0.0
 40
0.0577881786368403
 40
0.1346019614487082
 40
0.2020065932707529
 40
0.2276891219220838
 40
0.3550956091013668
 40
0.4348837859321344
 40
0.4996917031404549
 40
0.5606940005304063
 40
0.641728791827122
 40
0.6729162367286248
 40
0.8037573650529791
 40
0.8793608768022406
 40
0.9427078852835251
 40
1.0
 40
1.0
 40
1.0
 40
1.0
 10
-11.59975026536176
 20
-7.301453999647006
 30
0.0
 10
-11.4490707360302
 20
-7.311007888586187
 30
0.0
 10
-11.11002957210658
 20
-7.485110213349628
 30
0.0
 10
-11.16381161438549
 20
-8.251270087728548
 30
0.0
 10
-11.17687195475379
 20
-8.887791221982235
 30
0.0
 10
-11.2143101051455
 20
-8.945542645424576
 30
0.0
 10
-11.43183444940894
 20
-11.12863448324423
 30
0.0
 10
-11.1079380364592
 20
-11.89594531155285
 30
0.0
 10
-11.76546021360148
 20
-12.23795280749518
 30
0.0
 10
-12.32288346655131
 20
-11.99749783787523
 30
0.0
 10
-12.17234146076278
 20
-11.01453488475764
 30
0.0
 10
-12.22085978933387
 20
-10.96024361994828
 30
0.0
 10
-11.89731745362338
 20
-8.60859488396715
 30
0.0
 10
-12.13687110066049
 20
-8.04900919008394
 30
0.0
 10
-12.07429349814832
 20
-7.4069662159811
 30
0.0
 10
-11.74913633503076
 20
-7.291982122975967
 30
0.0
 10
-11.59975026536176
 20
-7.301453999647006
 30
0.0
  0
SPLINE
  5
10000062
102
{ACAD_XDICTIONARY
360
10000063
102
}
330
1F
100
AcDbEntity
  8
VISIBLE
100
AcDbSpline
210
0.0
220
0.0
230
1.0
 70
    11
 71
     3
 72
    22
 73
    18
 74
     0
 42
0.000000001
 43
0.00000001
 40
0.0
 40
0.0
 40
0.0
 40
0.0
 40
0.0576211040528322
 40
0.1254433121154986
 40
0.2348972756971796
 40
0.2999947028543704
 40
0.37440476996838
 40
0.4360551316986854
 40
0.4830254733311452
 40
0.5451623845805184
 40
0.5997001116974358
 40
0.7024438887588825
 40
0.7799737716997688
 40
0.8495896464463151
 40
0.9015246056206025
 40
0.9551363598499315
 40
1.0
 40
1.0
 40
1.0
 40
1.0
 10
-14.93978101437486
 20
-5.843965556677871
 30
0.0
 10
-14.98861976724372
 20
-6.063799491897412
 30
0.0
 10
-14.99871931639893
 20
-6.665035921668996
 30
0.0
 10
-14.64331139063535
 20
-7.559625545652032
 30
0.0
 10
-14.71312966667804
 20
-10.3777513179703
 30
0.0
 10
-15.02679928648331
 20
-11.10690278857973
 30
0.0
 10
-15.09141123584454
 20
-12.6855551493079
 30
0.0
 10
-13.89380624318702
 20
-12.66549400415403
 30
0.0
 10
-13.61095573497706
 20
-12.18927067042664
 30
0.0
 10
-13.65467847092239
 20
-11.23959672333292
 30
0.0
 10
-13.94073701844221
 20
-10.67849494979233
 30
0.0
 10
-13.75377395408599
 20
-8.202956586594139
 30
0.0
 10
-13.6904852286834
 20
-7.027755432454259
 30
0.0
 10
-13.45485574816841
 20
-5.810668858093745
 30
0.0
 10
-14.01601929154707
 20
-5.362745201634316
 30
0.0
 10
-14.75947548326823
 20
-5.372068874786324
 30
0.0
 10
-14.90175528977094
 20
-5.672803432581463
 30
0.0
 10
-14.93978101437486
 20
-5.843965556677871
 30
0.0
  0
SPLINE
  5
10000065
102
{ACAD_XDICTIONARY
360
10000066
102
}
330
1F
100
AcDbEntity
  8
VISIBLE
100
AcDbSpline
210
0.0
220
0.0
230
1.0
 70
    11
 71
     3
 72
    22
 73
    18
 74
     0
 42
0.000000001
 43
0.00000001
 40
0.0
 40
0.0
 40
0.0
 40
0.0
 40
0.051724959763119
 40
0.0900769677217762
 40
0.1809952133396357
 40
0.2204661364043348
 40
0.2830637241572184
 40
0.3779190047213354
 40
0.4674611398109469
 40
0.527949120447208
 40
0.5787819668921269
 40
0.6363307234815688
 40
0.7319768078925684
 40
0.8250206012001485
 40
0.8959411299600903
 40
0.9419790001260434
 40
1.0
 40
1.0
 40
1.0
 40
1.0
 10
-14.68408617541294
 20
-2.469440692140246
 30
0.0
 10
-14.84308413915637
 20
-2.640437022305651
 30
0.0
 10
-15.18619402061374
 20
-2.83198824535753
 30
0.0
 10
-15.50216317279871
 20
-2.794535854556858
 30
0.0
 10
-16.92458407589543
 20
-1.230146089383116
 30
0.0
 10
-16.31021464633281
 20
-1.062189685450148
 30
0.0
 10
-15.87125918662365
 20
-0.1740523839960536
 30
0.0
 10
-16.36803436338185
 20
1.725452624060572
 30
0.0
 10
-16.30321202672608
 20
3.394430294780804
 30
0.0
 10
-16.09236782878464
 20
4.357822525790977
 30
0.0
 10
-15.278609969038
 20
4.283103202566266
 30
0.0
 10
-14.98385369185905
 20
3.506706879564776
 30
0.0
 10
-14.82385735878216
 20
1.530091831415485
 30
0.0
 10
-15.12339702878946
 20
-0.3006086761977195
 30
0.0
 10
-14.49631425936596
 20
-1.336748985840527
 30
0.0
 10
-14.2716788734703
 20
-1.79596515078747
 30
0.0
 10
-14.50573473973152
 20
-2.277630430780737
 30
0.0
 10
-14.68408617541294
 20
-2.469440692140246
 30
0.0
  0
SPLINE
  5
10000068
102
{ACAD_XDICTIONARY
360
10000069
102
}
330
1F
100
AcDbEntity
  8
VISIBLE
100
AcDbSpline
210
0.0
220
0.0
230
1.0
 70
    11
 71
     3
 72
    22
 73
    18
 74
     0
 42
0.000000001
 43
0.00000001
 40
0.0
 40
0.0
 40
0.0
 40
0.0
 40
0.0546408470974384
 40
0.1132340197440957
 40
0.2088481647713419
 40
0.2444035550230222
 40
0.296161756237011
 40
0.3700789860597413
 40
0.4850805181557496
 40
0.5462430233713079
 40
0.5984331485594465
 40
0.651751991344574
 40
0.7341951568253804
 40
0.8363435820644146
 40
0.91136606184448
 40
0.9631635577002133
 40
1.0
 40
1.0
 40
1.0
 40
1.0
 10
-12.08165264505101
 20
-3.581839928946157
 30
0.0
 10
-12.13528243659899
 20
-3.776256122791159
 30
0.0
 10
-12.47587195717489
 20
-4.268508962332802
 30
0.0
 10
-13.31629974012591
 20
-5.495145408493872
 30
0.0
 10
-14.97721262905962
 20
-2.683230153789287
 30
0.0
 10
-14.47314412473072
 20
-2.496519671008274
 30
0.0
 10
-13.84705139319846
 20
-1.863979033709453
 30
0.0
 10
-14.05802915516024
 20
-0.3824034398742276
 30
0.0
 10
-14.07237209458206
 20
3.152072735799115
 30
0.0
 10
-13.98221969072419
 20
4.283628682371712
 30
0.0
 10
-12.93667073410037
 20
4.552220870381413
 30
0.0
 10
-12.56923543354129
 20
3.617376589588476
 30
0.0
 10
-12.50420777839137
 20
1.807373738874698
 30
0.0
 10
-12.7220414129909
 20
-0.9564711566221529
 30
0.0
 10
-12.52547509330246
 20
-2.502851197378003
 30
0.0
 10
-12.07958404701728
 20
-3.182560691636867
 30
0.0
 10
-12.04549781168278
 20
-3.450773130257173
 30
0.0
 10
-12.08165264505101
 20
-3.581839928946157
 30
0.0
  0
SPLINE
  5
1000006B
102
{ACAD_XDICTIONARY
360
1000006C
102
}
330
1F
100
AcDbEntity
  8
VISIBLE
100
AcDbSpline
210
0.0
220
0.0
230
1.0
 70
    11
 71
     3
 72
    17
 73
    13
 74
     0
 42
0.000000001
 43
0.00000001
 40
0.0
 40
0.0
 40
0.0
 40
0.0
 40
0.201515228264525
 40
0.3244336163988526
 40
0.3883887971546359
 40
0.447410944358823
 40
0.5453452850661018
 40
0.6831459310392008
 40
0.8378733275822386
 40
0.9178723702250522
 40
0.9623477500906836
 40
1.0
 40
1.0
 40
1.0
 40
1.0
 10
-12.52373372475932
 20
-19.05311632344103
 30
0.0
 10
-12.43863989415535
 20
-18.69693514440389
 30
0.0
 10
-12.44194816956159
 20
-15.59489892516662
 30
0.0
 10
-12.47265491216364
 20
-14.5823164459321
 30
0.0
 10
-12.60597797582712
 20
-14.07553579999622
 30
0.0
 10
-13.04399342741581
 20
-14.29972485254873
 30
0.0
 10
-12.85279638376869
 20
-15.18370187431504
 30
0.0
 10
-12.98353896653509
 20
-16.632418830389
 30
0.0
 10
-12.79567140905617
 20
-18.5041746350613
 30
0.0
 10
-12.84728794231257
 20
-19.20103623075725
 30
0.0
 10
-12.58094946205056
 20
-19.1452305415549
 30
0.0
 10
-12.53963313942507
 20
-19.11966723813666
 30
0.0
 10
-12.52373372475932
 20
-19.05311632344103
 30
0.0
  0
SPLINE
  5
1000006E
102
{ACAD_XDICTIONARY
360
1000006F
102
}
330
1F
100
AcDbEntity
  8
VISIBLE
100
AcDbSpline
210
0.0
220
0.0
230
1.0
 70
    11
 71
     3
 72
    34
 73
    30
 74
     0
 42
0.000000001
 43
0.00000001
 40
0.0
 40
0.0
 40
0.0
 40
0.0
 40
0.0217764030844369
 40
0.0610603553066238
 40
0.1107676159962513
 40
0.1620417411164111
 40
0.1983997209128026
 40
0.228242104185549
 40
0.2644963077540866
 40
0.3005853245125335
 40
0.3188957798982076
 40
0.345008966728702
 40
0.3726110009134577
 40
0.4110451081773666
 40
0.4395379731862302
 40
0.4743050372747333
 40
0.5175214705769826
 40
0.5575391161497293
 40
0.6047163380825553
 40
0.6465800582021819
 40
0.6721700147060304
 40
0.6987423321747406
 40
0.7516919520494957
 40
0.8122896371833641
 40
0.8323620737594946
 40
0.8737612488921896
 40
0.9275078547004261
 40
0.974621584562386
 40
1.0
 40
1.0
 40
1.0
 40
1.0
 10
-14.36109148611234
 20
-20.72140926451195
 30
0.0
 10
-14.37854713910674
 20
-20.64294080799266
 30
0.0
 10
-14.32405978043876
 20
-20.41439757324854
 30
0.0
 10
-13.48365998591457
 20
-20.29435733232722
 30
0.0
 10
-12.34062472143138
 20
-20.23324554188676
 30
0.0
 10
-11.14986630177139
 20
-20.74579706026254
 30
0.0
 10
-10.51678270185355
 20
-20.98520519550495
 30
0.0
 10
-10.02983461481021
 20
-20.8211037931004
 30
0.0
 10
-9.523752510517218
 20
-21.25697423959898
 30
0.0
 10
-8.859809115081525
 20
-21.34163124850394
 30
0.0
 10
-8.73013394532273
 20
-21.47814847766597
 30
0.0
 10
-8.714279906512507
 20
-21.89571258265311
 30
0.0
 10
-9.102980442915031
 20
-22.01583096655301
 30
0.0
 10
-9.790026382212163
 20
-22.29566474185025
 30
0.0
 10
-9.91776493801934
 20
-22.7879946753143
 30
0.0
 10
-10.6300063664104
 20
-22.63280471306105
 30
0.0
 10
-11.38646274545892
 20
-23.199342022387
 30
0.0
 10
-12.05966818696873
 20
-23.57362765309475
 30
0.0
 10
-13.09765359885766
 20
-23.81716420495211
 30
0.0
 10
-14.02490444622434
 20
-23.78580160622969
 30
0.0
 10
-14.19437252742001
 20
-23.29708815182232
 30
0.0
 10
-13.71240105877295
 20
-23.19279262614303
 30
0.0
 10
-12.49349877377989
 20
-22.94275355215549
 30
0.0
 10
-10.87022926947557
 20
-22.02399987330748
 30
0.0
 10
-10.8431603866089
 20
-21.64891018681717
 30
0.0
 10
-11.78656693048699
 20
-21.41993471020885
 30
0.0
 10
-12.98101922543306
 20
-20.96606614272155
 30
0.0
 10
-14.13953087509976
 20
-21.06228475692283
 30
0.0
 10
-14.3407485115766
 20
-20.81285710741665
 30
0.0
 10
-14.36109148611234
 20
-20.72140926451195
 30
0.0
  0
SPLINE
  5
10000071
102
{ACAD_XDICTIONARY
360
10000072
102
}
330
1F
100
AcDbEntity
  8
VISIBLE
100
AcDbSpline
210
0.0
220
0.0
230
1.0
 70
    11
 71
     3
 72
    22
 73
    18
 74
     0
 42
0.000000001
 43
0.00000001
 40
0.0
 40
0.0
 40
0.0
 40
0.0
 40
0.054094522263865
 40
0.1194924320540677
 40
0.189020914203986
 40
0.3005110324947039
 40
0.331413130284699
 40
0.403927319277869
 40
0.456885196720989
 40
0.5226708794747826
 40
0.5824861079791559
 40
0.6574035065323146
 40
0.7893360110792484
 40
0.8434790081328084
 40
0.900940845898887
 40
0.963999773961629
 40
1.0
 40
1.0
 40
1.0
 40
1.0
 10
-15.25616753063131
 20
-4.325440929769038
 30
0.0
 10
-15.13576995819142
 20
-4.471275492283309
 30
0.0
 10
-14.79561108745333
 20
-5.038044064071036
 30
0.0
 10
-15.13756652640393
 20
-6.229161028587358
 30
0.0
 10
-15.46736102601364
 20
-7.188630170800437
 30
0.0
 10
-15.48240133042389
 20
-10.69166361517401
 30
0.0
 10
-15.22368803655291
 20
-10.76657189032925
 30
0.0
 10
-15.06659704948733
 20
-12.29932059251177
 30
0.0
 10
-15.53372381977654
 20
-12.89614931877869
 30
0.0
 10
-16.91031147007948
 20
-13.03387297294613
 30
0.0
 10
-17.30097090922789
 20
-11.80527049464809
 30
0.0
 10
-16.48660003909183
 20
-10.66355910805089
 30
0.0
 10
-16.5633395628466
 20
-5.932705778369728
 30
0.0
 10
-16.76257807799257
 20
-5.324004446717148
 30
0.0
 10
-16.7943087629283
 20
-4.180460544103344
 30
0.0
 10
-15.5158279853059
 20
-4.096292873644304
 30
0.0
 10
-15.33629283058617
 20
-4.228387161753274
 30
0.0
 10
-15.25616753063131
 20
-4.325440929769038
 30
0.0
  0
SPLINE
  5
10000074
102
{ACAD_XDICTIONARY
360
10000075
102
}
330
1F
100
AcDbEntity
  8
VISIBLE
100
AcDbSpline
210
0.0
220
0.0
230
1.0
 70
    11
 71
     3
 72
    19
 73
    15
 74
     0
 42
0.000000001
 43
0.00000001
 40
0.0
 40
0.0
 40
0.0
 40
0.0
 40
0.0438692485234711
 40
0.2197266051308059
 40
0.3381121082901258
 40
0.3986612391925058
 40
0.4420474642342509
 40
0.4997464887628366
 40
0.6122531873486297
 40
0.6779592712102359
 40
0.8099286937659832
 40
0.9192874274390304
 40
0.9624024668235671
 40
1.0
 40
1.0
 40
1.0
 40
1.0
 10
-13.27643809758274
 20
-14.17402178153683
 30
0.0
 10
-13.23727423642846
 20
-14.20792138767191
 30
0.0
 10
-13.09836709556817
 20
-14.36781655234313
 30
0.0
 10
-13.22454801029994
 20
-17.58190802638116
 30
0.0
 10
-13.41016113583622
 20
-18.74840284258646
 30
0.0
 10
-13.39329891071346
 20
-19.32900423837455
 30
0.0
 10
-13.70799813385999
 20
-19.18201901125554
 30
0.0
 10
-13.67839897879577
 20
-18.83961782094749
 30
0.0
 10
-13.68428004917779
 20
-17.51413717523245
 30
0.0
 10
-13.8221812993722
 20
-17.1610701862244
 30
0.0
 10
-13.72114306406717
 20
-15.41447873725803
 30
0.0
 10
-13.696080316179
 20
-14.15483425450805
 30
0.0
 10
-13.4000821356393
 20
-14.07948293279322
 30
0.0
 10
-13.3100029435426
 20
-14.14496859258945
 30
0.0
 10
-13.27643809758274
 20
-14.17402178153683
 30
0.0
  0
LINE
  5
10000077
102
{ACAD_XDICTIONARY
360
10000078
102
}
330
1F
100
AcDbEntity
  8
VISIBLE
100
AcDbLine
 10
0.5608090514859816
 20
4.829827725417971
 30
0.0
 11
0.5608090514859816
 21
-30.71623798011915
 31
0.0
  0
LINE
  5
1000007A
102
{ACAD_XDICTIONARY
360
1000007B
102
}
330
1F
100
AcDbEntity
  8
VISIBLE
100
AcDbLine
 10
0.5608090514859816
 20
4.829827725417971
 30
0.0
 11
-17.283951907646
 21
4.829827725417971
 31
0.0
  0
LINE
  5
1000007D
102
{ACAD_XDICTIONARY
360
1000007E
102
}
330
1F
100
AcDbEntity
  8
VISIBLE
100
AcDbLine
 10
-17.283951907646
 20
4.829827725417971
 30
0.0
 11
-17.283951907646
 21
-30.71623798011915
 31
0.0
  0
LINE
  5
10000080
102
{ACAD_XDICTIONARY
360
10000081
102
}
330
1F
100
AcDbEntity
  8
VISIBLE
100
AcDbLine
 10
0.5608090514859816
 20
-30.71623798011915
 30
0.0
 11
-17.283951907646
 21
-30.71623798011915
 31
0.0
  0
LINE
  5
10000083
102
{ACAD_XDICTIONARY
360
10000084
102
}
330
1F
100
AcDbEntity
  8
VISIBLE
100
AcDbLine
 10
-2.363406004398828
 20
3.440863504184513
 30
0.0
 11
-2.443836781922289
 21
3.1090832836046
 31
0.0
  0
SPLINE
  5
10000086
102
{ACAD_XDICTIONARY
360
10000087
102
}
330
1F
100
AcDbEntity
  8
VISIBLE
100
AcDbSpline
210
0.0
220
0.0
230
1.0
 70
     8
 71
     3
 72
    23
 73
    19
 74
     0
 42
0.000000001
 43
0.00000001
 40
0.0
 40
0.0
 40
0.0
 40
0.0
 40
0.1046846379096873
 40
0.143593979110109
 40
0.1911911108653353
 40
0.313576983140696
 40
0.4366661278283435
 40
0.4847853140887777
 40
0.5623361417322562
 40
0.6315799663248247
 40
0.6832307911040891
 40
0.743098061478401
 40
0.7964267875921904
 40
0.84651417915753
 40
0.8950753431427202
 40
0.9551402766666263
 40
0.9937395080198612
 40
1.0
 40
1.0
 40
1.0
 40
1.0
 10
-2.443836781922288
 20
3.109083283604599
 30
0.0
 10
-2.265204283377597
 20
3.054327541984554
 30
0.0
 10
-2.0201773933143
 20
2.979220105255103
 30
0.0
 10
-1.950545733764497
 20
2.953170166567949
 30
0.0
 10
-1.853204967146658
 20
2.891932352597862
 30
0.0
 10
-1.336219923709761
 20
2.60086551222496
 30
0.0
 10
-0.7987299582029568
 20
2.275034743487889
 30
0.0
 10
-0.7169650528189899
 20
2.227129589380862
 30
0.0
 10
-0.5282090030299561
 20
2.048158550696863
 30
0.0
 10
-0.4219155437286453
 20
1.883203873632298
 30
0.0
 10
-0.4082943505766188
 20
1.770767988191324
 30
0.0
 10
-0.4120785790189531
 20
1.614671642882362
 30
0.0
 10
-0.4862082885495951
 20
1.521377244514817
 30
0.0
 10
-0.5366429052217845
 20
1.42662937392509
 30
0.0
 10
-0.5737037179483765
 20
1.337053694800345
 30
0.0
 10
-0.6036527251323849
 20
1.204587440002833
 30
0.0
 10
-0.6427253724068118
 20
1.133503212828814
 30
0.0
 10
-0.6419103482956066
 20
1.13905274305398
 30
0.0
 10
-0.6417966059108419
 20
1.139827219285364
 30
0.0
  0
SPLINE
  5
10000089
102
{ACAD_XDICTIONARY
360
1000008A
102
}
330
1F
100
AcDbEntity
  8
VISIBLE
100
AcDbSpline
210
0.0
220
0.0
230
1.0
 70
     8
 71
     3
 72
    16
 73
    12
 74
     0
 42
0.000000001
 43
0.00000001
 40
0.0
 40
0.0
 40
0.0
 40
0.0
 40
0.1383880388515438
 40
0.2124397779455991
 40
0.3170046616476068
 40
0.3970561553134887
 40
0.5074465846745364
 40
0.600708690913711
 40
0.7166635690689711
 40
0.8865970196537252
 40
1.0
 40
1.0
 40
1.0
 40
1.0
 10
-0.6417966059108419
 20
1.139827219285364
 30
0.0
 10
-0.756901442672617
 20
0.8940163641044453
 30
0.0
 10
-0.9335991266998314
 20
0.5166715883231262
 30
0.0
 10
-1.043758418184933
 20
0.3723471891289497
 30
0.0
 10
-1.241990609288503
 20
-0.0231135685453859
 30
0.0
 10
-1.481993858549825
 20
-0.0416325466114601
 30
0.0
 10
-1.940565103272007
 20
-0.0540115440765378
 30
0.0
 10
-2.207294464824626
 20
0.1421277059529838
 30
0.0
 10
-2.653650342981441
 20
0.3087193984144103
 30
0.0
 10
-3.608287342886561
 20
0.6948564444571427
 30
0.0
 10
-3.908332732137222
 20
0.8361268316597195
 30
0.0
 10
-4.0284233299766
 20
0.8926690944771128
 30
0.0
  0
SPLINE
  5
1000008C
102
{ACAD_XDICTIONARY
360
1000008D
102
}
330
1F
100
AcDbEntity
  8
VISIBLE
100
AcDbSpline
210
0.0
220
0.0
230
1.0
 70
     8
 71
     3
 72
    30
 73
    26
 74
     0
 42
0.000000001
 43
0.00000001
 40
0.0
 40
0.0
 40
0.0
 40
0.0
 40
0.0331405043495553
 40
0.0703906337038227
 40
0.1247957282893937
 40
0.1686939555452636
 40
0.1885883231402218
 40
0.2205711632765901
 40
0.2557504072477797
 40
0.2891294248554697
 40
0.3300538190583514
 40
0.3736978347836926
 40
0.4124071423459267
 40
0.4658348306236984
 40
0.5255560800279061
 40
0.5892901832136259
 40
0.6268444855945586
 40
0.6608689136463577
 40
0.6976277937143901
 40
0.7241608799875892
 40
0.7533490847273833
 40
0.7936585212962299
 40
0.9121982152646608
 40
0.9570976918542348
 40
1.0
 40
1.0
 40
1.0
 40
1.0
 10
-4.0284233299766
 20
0.8926690944771128
 30
0.0
 10
-4.057527366832558
 20
0.8102133238793344
 30
0.0
 10
-4.119344518919981
 20
0.6350767633824042
 30
0.0
 10
-4.451259088569404
 20
0.5577041646833956
 30
0.0
 10
-5.020452145555587
 20
0.3017905408596745
 30
0.0
 10
-5.439232437634028
 20
0.1438276827264771
 30
0.0
 10
-5.536402913548139
 20
0.1076177597839028
 30
0.0
 10
-5.754725488158189
 20
0.2287570092200651
 30
0.0
 10
-5.984950690500593
 20
0.3642497224392302
 30
0.0
 10
-6.234102962617823
 20
0.4362990463044618
 30
0.0
 10
-6.618829406688942
 20
0.3820161180687258
 30
0.0
 10
-6.973129556900671
 20
0.1151912264997904
 30
0.0
 10
-7.18985667529986
 20
-0.1385606458429309
 30
0.0
 10
-7.704773559280465
 20
-0.5701565716403678
 30
0.0
 10
-8.288683064461907
 20
-1.026334000264746
 30
0.0
 10
-9.023945405514157
 20
-1.573054250069457
 30
0.0
 10
-9.344902583643519
 20
-1.717515526042151
 30
0.0
 10
-9.602655792604082
 20
-1.585970116405184
 30
0.0
 10
-9.790588109240886
 20
-1.328116906376346
 30
0.0
 10
-9.780086108357585
 20
-1.164634712416535
 30
0.0
 10
-9.703481942608681
 20
-0.937536967822351
 30
0.0
 10
-9.389965215883985
 20
-0.7973094986990948
 30
0.0
 10
-7.027025262363106
 20
1.399204357327585
 30
0.0
 10
-6.597337961916026
 20
1.394595043061254
 30
0.0
 10
-6.309255022518635
 20
1.488658107732604
 30
0.0
 10
-6.168489967744182
 20
1.534619845273927
 30
0.0
  0
LINE
  5
1000008F
102
{ACAD_XDICTIONARY
360
10000090
102
}
330
1F
100
AcDbEntity
  8
VISIBLE
100
AcDbLine
 10
-6.168489967744182
 20
1.534619845273927
 30
0.0
 11
-7.184225273883249
 21
2.738546257413279
 31
0.0
  0
SPLINE
  5
10000092
102
{ACAD_XDICTIONARY
360
10000093
102
}
330
1F
100
AcDbEntity
  8
VISIBLE
100
AcDbSpline
210
0.0
220
0.0
230
1.0
 70
     8
 71
     3
 72
    21
 73
    17
 74
     0
 42
0.000000001
 43
0.00000001
 40
0.0
 40
0.0
 40
0.0
 40
0.0
 40
0.0931017011048261
 40
0.1809872703218596
 40
0.2684346015262404
 40
0.3163533502965585
 40
0.3868355321417029
 40
0.4411004929382872
 40
0.4923631993113252
 40
0.543977906210861
 40
0.6118326593551175
 40
0.7550566660725649
 40
0.8530466479833114
 40
0.9374279620903623
 40
0.9846817992778992
 40
1.0
 40
1.0
 40
1.0
 40
1.0
 10
-7.184225273883249
 20
2.738546257413279
 30
0.0
 10
-7.480374096269371
 20
2.842637617132437
 30
0.0
 10
-8.06571389471944
 20
3.048374752796804
 30
0.0
 10
-8.760108770359585
 20
3.348256589080671
 30
0.0
 10
-9.634033644966868
 20
3.586935336494529
 30
0.0
 10
-9.662502491681625
 20
3.880027150821428
 30
0.0
 10
-9.576512987607256
 20
4.437933233368041
 30
0.0
 10
-9.28729313846033
 20
4.594060669697136
 30
0.0
 10
-9.03530715093419
 20
4.748460388684403
 30
0.0
 10
-8.712417035114594
 20
4.691825955507973
 30
0.0
 10
-8.244136093216483
 20
4.586948595589193
 30
0.0
 10
-6.240542265679845
 20
3.58827017342384
 30
0.0
 10
-5.306655110946919
 20
3.634325949602652
 30
0.0
 10
-4.507322135372714
 20
3.738912389257437
 30
0.0
 10
-4.30554316153076
 20
3.929591387162478
 30
0.0
 10
-4.2664907282792
 20
3.928163748508912
 30
0.0
 10
-4.26363346614237
 20
3.927003621585726
 30
0.0
  0
SPLINE
  5
10000095
102
{ACAD_XDICTIONARY
360
10000096
102
}
330
1F
100
AcDbEntity
  8
VISIBLE
100
AcDbSpline
210
0.0
220
0.0
230
1.0
 70
     8
 71
     3
 72
    11
 73
     7
 74
     0
 42
0.000000001
 43
0.00000001
 40
0.0
 40
0.0
 40
0.0
 40
0.0
 40
0.2214746620261104
 40
0.5181542381193209
 40
0.8439053857616979
 40
1.0
 40
1.0
 40
1.0
 40
1.0
 10
-4.26363346614237
 20
3.927003621585726
 30
0.0
 10
-4.139114855799377
 20
3.905245926882458
 30
0.0
 10
-3.899307861187425
 20
3.863799972143738
 30
0.0
 10
-3.298417129249847
 20
3.684425646329681
 30
0.0
 10
-2.567190380888349
 20
3.509316922564592
 30
0.0
 10
-2.382844616499504
 20
3.474230197517404
 30
0.0
 10
-2.363406004398827
 20
3.440863504184513
 30
0.0
  0
SPLINE
  5
10000098
102
{ACAD_XDICTIONARY
360
10000099
102
}
330
1F
100
AcDbEntity
  8
VISIBLE
100
AcDbSpline
210
0.0
220
0.0
230
1.0
 70
     8
 71
     3
 72
    11
 73
     7
 74
     0
 42
0.000000001
 43
0.00000001
 40
0.0
 40
0.0
 40
0.0
 40
0.0
 40
0.2335437009892256
 40
0.4821554256198928
 40
0.7311387998978381
 40
1.0
 40
1.0
 40
1.0
 40
1.0
 10
-14.42504562730864
 20
-14.71369754611038
 30
0.0
 10
-14.48380068945718
 20
-14.63617392764659
 30
0.0
 10
-14.60510163603616
 20
-14.47612493853802
 30
0.0
 10
-14.54698767142775
 20
-14.0836395195318
 30
0.0
 10
-14.16686894581182
 20
-13.99040945446528
 30
0.0
 10
-13.93274720980457
 20
-14.08594204201164
 30
0.0
 10
-13.81119287858798
 20
-14.13554187834732
 30
0.0
  0
SPLINE
  5
1000009B
102
{ACAD_XDICTIONARY
360
1000009C
102
}
330
1F
100
AcDbEntity
  8
VISIBLE
100
AcDbSpline
210
0.0
220
0.0
230
1.0
 70
     8
 71
     3
 72
    19
 73
    15
 74
     0
 42
0.000000001
 43
0.00000001
 40
0.0
 40
0.0
 40
0.0
 40
0.0
 40
0.0544076107367091
 40
0.1167942603164701
 40
0.196903926515334
 40
0.3362435459680184
 40
0.4560679394909586
 40
0.5198804391396317
 40
0.5767132336422162
 40
0.6396592855823113
 40
0.7189844337736861
 40
0.8339043949119023
 40
0.9809489631380013
 40
1.0
 40
1.0
 40
1.0
 40
1.0
 10
-13.81119287858798
 20
-14.13554187834732
 30
0.0
 10
-13.77410606110338
 20
-14.21979533865748
 30
0.0
 10
-13.69449353342658
 20
-14.40065828122718
 30
0.0
 10
-13.81236236385174
 20
-14.78494982006202
 30
0.0
 10
-14.07636943800965
 20
-15.33969742996346
 30
0.0
 10
-14.0270290350312
 20
-17.11612762479883
 30
0.0
 10
-14.21144217602593
 20
-18.37098176419622
 30
0.0
 10
-14.24172375784015
 20
-18.85517644336289
 30
0.0
 10
-14.65032469461689
 20
-18.87580315214536
 30
0.0
 10
-14.91548631136704
 20
-18.49629802635838
 30
0.0
 10
-14.55361810883604
 20
-17.89580765350928
 30
0.0
 10
-14.50212855654458
 20
-16.88111276911166
 30
0.0
 10
-14.3503321444254
 20
-14.74638763151739
 30
0.0
 10
-14.41735783291224
 20
-14.71706125833087
 30
0.0
 10
-14.42504562730864
 20
-14.71369754611037
 30
0.0
  0
SPLINE
  5
1000009E
102
{ACAD_XDICTIONARY
360
1000009F
102
}
330
1F
100
AcDbEntity
  8
VISIBLE
100
AcDbSpline
210
0.0
220
0.0
230
1.0
 70
     8
 71
     3
 72
    22
 73
    18
 74
     0
 42
0.000000001
 43
0.00000001
 40
0.0
 40
0.0
 40
0.0
 40
0.0
 40
0.0319189852971404
 40
0.0766945055879033
 40
0.1881224986268953
 40
0.2437138354667212
 40
0.282399502268847
 40
0.3305023250906507
 40
0.3869359182641826
 40
0.4311873073696011
 40
0.5559559966519165
 40
0.6409726688898243
 40
0.7185652618183695
 40
0.8146761564675542
 40
0.8570203684273178
 40
0.9634357938262257
 40
1.0
 40
1.0
 40
1.0
 40
1.0
 10
-8.489236944784489
 20
-13.91780986575649
 30
0.0
 10
-8.530006917826512
 20
-13.85381409856698
 30
0.0
 10
-8.633318028653658
 20
-13.66894634950584
 30
0.0
 10
-9.014135800286873
 20
-14.12002636956648
 30
0.0
 10
-9.394321000598385
 20
-16.60697935170959
 30
0.0
 10
-8.907404734210244
 20
-17.08625803225291
 30
0.0
 10
-8.979123524086917
 20
-17.49813030977013
 30
0.0
 10
-9.396258889713963
 20
-17.66180410638874
 30
0.0
 10
-10.10946567231173
 20
-18.04545909458803
 30
0.0
 10
-10.10968692376048
 20
-17.39918951503427
 30
0.0
 10
-10.27012908486967
 20
-14.32727285523645
 30
0.0
 10
-10.03211894592142
 20
-12.94522208023449
 30
0.0
 10
-9.524961421490785
 20
-11.91331934485786
 30
0.0
 10
-9.424185894869739
 20
-9.811815640092313
 30
0.0
 10
-8.884984127409766
 20
-9.880006182218994
 30
0.0
 10
-8.575584750308591
 20
-7.381630206907753
 30
0.0
 10
-8.27999943951227
 20
-7.360726887263787
 30
0.0
 10
-8.198396895156506
 20
-7.354311773552291
 30
0.0
  0
SPLINE
  5
100000A1
102
{ACAD_XDICTIONARY
360
100000A2
102
}
330
1F
100
AcDbEntity
  8
VISIBLE
100
AcDbSpline
210
0.0
220
0.0
230
1.0
 70
     8
 71
     3
 72
    14
 73
    10
 74
     0
 42
0.000000001
 43
0.00000001
 40
0.0
 40
0.0
 40
0.0
 40
0.0
 40
0.0771248345641277
 40
0.1898416070277771
 40
0.4220526732173897
 40
0.5460524362381581
 40
0.713182685723318
 40
0.9412802151548894
 40
1.0
 40
1.0
 40
1.0
 40
1.0
 10
-8.198396895156506
 20
-7.354311773552291
 30
0.0
 10
-8.122604163796488
 20
-7.365648987821691
 30
0.0
 10
-7.922867707675437
 20
-7.378179078114586
 30
0.0
 10
-7.80216448673514
 20
-7.900235896994863
 30
0.0
 10
-7.80626374581199
 20
-9.92742529010825
 30
0.0
 10
-7.411457022911688
 20
-10.37813193116976
 30
0.0
 10
-7.191933765783892
 20
-11.37041405189709
 30
0.0
 10
-7.669465646557923
 20
-13.36154077015124
 30
0.0
 10
-7.496773892661955
 20
-13.43639617392545
 30
0.0
 10
-7.461508310685947
 20
-13.45168417832983
 30
0.0
  0
SPLINE
  5
100000A4
102
{ACAD_XDICTIONARY
360
100000A5
102
}
330
1F
100
AcDbEntity
  8
VISIBLE
100
AcDbSpline
210
0.0
220
0.0
230
1.0
 70
     8
 71
     3
 72
     9
 73
     5
 74
     0
 42
0.000000001
 43
0.00000001
 40
0.0
 40
0.0
 40
0.0
 40
0.0
 40
0.5371373120807389
 40
1.0
 40
1.0
 40
1.0
 40
1.0
 10
-7.461508310685947
 20
-13.45168417832983
 30
0.0
 10
-7.345736641656319
 20
-13.48980493757728
 30
0.0
 10
-7.130202054082885
 20
-13.56077516881999
 30
0.0
 10
-6.971711655073198
 20
-13.64955372386935
 30
0.0
 10
-6.898352362978177
 20
-13.69064600448909
 30
0.0
  0
SPLINE
  5
100000A7
102
{ACAD_XDICTIONARY
360
100000A8
102
}
330
1F
100
AcDbEntity
  8
VISIBLE
100
AcDbSpline
210
0.0
220
0.0
230
1.0
 70
     8
 71
     3
 72
    18
 73
    14
 74
     0
 42
0.000000001
 43
0.00000001
 40
0.0
 40
0.0
 40
0.0
 40
0.0
 40
0.0548555883894874
 40
0.123196276361622
 40
0.1872882630893315
 40
0.2658560188977616
 40
0.447855023577787
 40
0.5363689247802642
 40
0.5905692377071303
 40
0.6357918173666443
 40
0.6967496646682406
 40
0.789036707111521
 40
1.0
 40
1.0
 40
1.0
 40
1.0
 10
-6.898352362978177
 20
-13.69064600448909
 30
0.0
 10
-6.875426334165538
 20
-13.78506244871136
 30
0.0
 10
-6.823962678370134
 20
-13.99700561411911
 30
0.0
 10
-7.272930863831917
 20
-13.93251003622475
 30
0.0
 10
-7.613991820134809
 20
-14.13417915752878
 30
0.0
 10
-7.449631015746737
 20
-14.64218247896075
 30
0.0
 10
-7.763232427746589
 20
-17.17642442264946
 30
0.0
 10
-7.652506416888477
 20
-17.72238245146912
 30
0.0
 10
-7.692747297740074
 20
-18.02955124917666
 30
0.0
 10
-7.886061664037452
 20
-18.04354251989391
 30
0.0
 10
-8.231489769676418
 20
-18.00628163721422
 30
0.0
 10
-8.544025573162894
 20
-17.22434457769355
 30
0.0
 10
-8.507768505886391
 20
-15.27698361626296
 30
0.0
 10
-8.489236944784489
 20
-13.91780986575649
 30
0.0
  0
SPLINE
  5
100000AA
102
{ACAD_XDICTIONARY
360
100000AB
102
}
330
1F
100
AcDbEntity
  8
VISIBLE
100
AcDbSpline
210
0.0
220
0.0
230
1.0
 70
     8
 71
     3
 72
    36
 73
    32
 74
     0
 42
0.000000001
 43
0.00000001
 40
0.0
 40
0.0
 40
0.0
 40
0.0
 40
0.0412085651903657
 40
0.0704727816044249
 40
0.0862272685759174
 40
0.1226175221608689
 40
0.1637102184450531
 40
0.1977153296636189
 40
0.2197862945158827
 40
0.2465743328577965
 40
0.2729321510964453
 40
0.2930737397954034
 40
0.3186613867372018
 40
0.370427309013983
 40
0.3919184600208311
 40
0.4189913126138223
 40
0.4555809899455082
 40
0.479889314561015
 40
0.5084098411859541
 40
0.5354673117856207
 40
0.5798119505967251
 40
0.6267793887708358
 40
0.677060534022581
 40
0.7070148278613935
 40
0.7346684204639403
 40
0.7574164209007421
 40
0.783100988926374
 40
0.863832728147894
 40
0.8991729874741662
 40
0.9177701448770181
 40
1.0
 40
1.0
 40
1.0
 40
1.0
 10
-3.324976176258148
 20
-5.937839352239775
 30
0.0
 10
-3.061171618697375
 20
-6.047377565820344
 30
0.0
 10
-2.61037866454656
 20
-6.23455801239398
 30
0.0
 10
-2.396377167058577
 20
-6.645303006519708
 30
0.0
 10
-2.397999257783612
 20
-6.788685940215727
 30
0.0
 10
-1.782001255402253
 20
-7.095939112551386
 30
0.0
 10
-1.297955074203452
 20
-7.612784680960894
 30
0.0
 10
-0.822535515595539
 20
-7.947380020595777
 30
0.0
 10
-0.7921036991922521
 20
-8.217565868806174
 30
0.0
 10
-0.9549358878904021
 20
-8.514058538060597
 30
0.0
 10
-1.125723617010443
 20
-8.793284556177925
 30
0.0
 10
-1.348564492743062
 20
-8.86301556676043
 30
0.0
 10
-1.619824039962813
 20
-8.774133667077841
 30
0.0
 10
-2.834112166198303
 20
-8.406779808659431
 30
0.0
 10
-2.959845634402765
 20
-8.167907455610068
 30
0.0
 10
-3.352349155957763
 20
-8.381594426693034
 30
0.0
 10
-3.883865711857467
 20
-7.901349964033118
 30
0.0
 10
-4.171641542233597
 20
-8.13196841964746
 30
0.0
 10
-4.509019450717572
 20
-7.82532745776928
 30
0.0
 10
-4.825534552143011
 20
-7.728892569142138
 30
0.0
 10
-5.787443443513955
 20
-7.622711082344474
 30
0.0
 10
-6.718997501468359
 20
-7.531411116517058
 30
0.0
 10
-7.876112962278996
 20
-7.235702716813826
 30
0.0
 10
-8.308027830561892
 20
-7.06336095237717
 30
0.0
 10
-8.360520300721351
 20
-6.650611694238842
 30
0.0
 10
-8.252706691116462
 20
-6.401913417504229
 30
0.0
 10
-7.93913554505048
 20
-6.178523586476255
 30
0.0
 10
-4.979044682117874
 20
-6.936191145880115
 30
0.0
 10
-4.372045182557531
 20
-6.719307809310145
 30
0.0
 10
-4.253669102914376
 20
-6.328867905110383
 30
0.0
 10
-5.928840597956992
 20
-5.769448974166127
 30
0.0
 10
-7.29488868882337
 20
-5.312895211647815
 30
0.0
  0
SPLINE
  5
100000AD
102
{ACAD_XDICTIONARY
360
100000AE
102
}
330
1F
100
AcDbEntity
  8
VISIBLE
100
AcDbSpline
210
0.0
220
0.0
230
1.0
 70
     8
 71
     3
 72
    21
 73
    17
 74
     0
 42
0.000000001
 43
0.00000001
 40
0.0
 40
0.0
 40
0.0
 40
0.0
 40
0.0806209151371076
 40
0.1405042494300136
 40
0.19906632998427
 40
0.261329200644784
 40
0.3386847750797106
 40
0.4712091053139053
 40
0.5768261175329601
 40
0.5793326283666188
 40
0.688816148537655
 40
0.764881634736131
 40
0.8436417579581753
 40
0.8992977992679908
 40
0.9602125513626661
 40
1.0
 40
1.0
 40
1.0
 40
1.0
 10
-7.29488868882337
 20
-5.312895211647815
 30
0.0
 10
-7.465374498456717
 20
-5.286112312966547
 30
0.0
 10
-7.758262509343038
 20
-5.240086699080376
 30
0.0
 10
-7.85452182645317
 20
-4.950375262374102
 30
0.0
 10
-7.779227979594848
 20
-4.713232247950648
 30
0.0
 10
-7.540980640236461
 20
-4.498124635511394
 30
0.0
 10
-7.086573436103798
 20
-4.63152730612705
 30
0.0
 10
-6.053468473390484
 20
-4.833531445781638
 30
0.0
 10
-5.194055459559029
 20
-5.108961637378968
 30
0.0
 10
-5.207692136369203
 20
-5.117048601199595
 30
0.0
 10
-4.347671804934792
 20
-5.436685540829698
 30
0.0
 10
-4.099234782575135
 20
-5.627851745881103
 30
0.0
 10
-3.637617136229105
 20
-5.508196308448309
 30
0.0
 10
-3.375862969674534
 20
-5.534630822009337
 30
0.0
 10
-3.371470630302908
 20
-5.837631638092212
 30
0.0
 10
-3.338273056192788
 20
-5.909187944350472
 30
0.0
 10
-3.324976176258148
 20
-5.937839352239776
 30
0.0
  0
SPLINE
  5
100000B0
102
{ACAD_XDICTIONARY
360
100000B1
102
}
330
1F
100
AcDbEntity
  8
VISIBLE
100
AcDbSpline
210
0.0
220
0.0
230
1.0
 70
     8
 71
     3
 72
    18
 73
    14
 74
     0
 42
0.000000001
 43
0.00000001
 40
0.0
 40
0.0
 40
0.0
 40
0.0
 40
0.0993290896734764
 40
0.1624338146560363
 40
0.2109754113429676
 40
0.2719340412506318
 40
0.3407354575590559
 40
0.4173349972612924
 40
0.5127061870424111
 40
0.6922323519816262
 40
0.8364306519818461
 40
0.9139408850073969
 40
1.0
 40
1.0
 40
1.0
 40
1.0
 10
-4.905724501985265
 20
-1.004490136044232
 30
0.0
 10
-4.822280946521382
 20
-0.8331353183164486
 30
0.0
 10
-4.68582489857997
 20
-0.5529171385796614
 30
0.0
 10
-4.517196540964798
 20
-0.4170925182697938
 30
0.0
 10
-4.351130799869001
 20
-0.3792039311936097
 30
0.0
 10
-4.30038730464211
 20
-0.6126299750265988
 30
0.0
 10
-4.070044489252641
 20
-0.7255286826794286
 30
0.0
 10
-3.744602796718949
 20
-0.7884795206796925
 30
0.0
 10
-3.276370255070788
 20
-0.6645445897283512
 30
0.0
 10
-1.659637213731267
 20
-0.3881476287849223
 30
0.0
 10
-0.6199615705676284
 20
-0.4199366251533463
 30
0.0
 10
-0.2270753236593011
 20
-0.356410889983141
 30
0.0
 10
-0.1140348920633398
 20
-0.6136191248640839
 30
0.0
 10
-0.0545606713771351
 20
-0.7489446814604632
 30
0.0
  0
SPLINE
  5
100000B3
102
{ACAD_XDICTIONARY
360
100000B4
102
}
330
1F
100
AcDbEntity
  8
VISIBLE
100
AcDbSpline
210
0.0
220
0.0
230
1.0
 70
     8
 71
     3
 72
    14
 73
    10
 74
     0
 42
0.000000001
 43
0.00000001
 40
0.0
 40
0.0
 40
0.0
 40
0.0
 40
0.0956687388052387
 40
0.1838785966951244
 40
0.2725093927378058
 40
0.3858537801886057
 40
0.6096990288524928
 40
0.8116609414684942
 40
1.0
 40
1.0
 40
1.0
 40
1.0
 10
-0.0545606713771351
 20
-0.7489446814604632
 30
0.0
 10
-0.0536212794821565
 20
-0.8286913548028607
 30
0.0
 10
-0.0518157360459971
 20
-0.9819671956724337
 30
0.0
 10
-0.1786780786861303
 20
-1.147207084816487
 30
0.0
 10
-0.366504095839465
 20
-1.255162581596471
 30
0.0
 10
-0.6923782922653041
 20
-1.320060601762143
 30
0.0
 10
-1.913116326249993
 20
-1.67397520871564
 30
0.0
 10
-2.856980682128062
 20
-1.824380365835382
 30
0.0
 10
-3.453999297521346
 20
-1.968145472287991
 30
0.0
 10
-3.742089597728309
 20
-2.037519075739096
 30
0.0
  0
SPLINE
  5
100000B6
102
{ACAD_XDICTIONARY
360
100000B7
102
}
330
1F
100
AcDbEntity
  8
VISIBLE
100
AcDbSpline
210
0.0
220
0.0
230
1.0
 70
     8
 71
     3
 72
    17
 73
    13
 74
     0
 42
0.000000001
 43
0.00000001
 40
0.0
 40
0.0
 40
0.0
 40
0.0
 40
0.0939531561055991
 40
0.1386582508425941
 40
0.2443394913358045
 40
0.4604659512844112
 40
0.5093738258658354
 40
0.5588674031397485
 40
0.6185674835394112
 40
0.6844450673459007
 40
0.779384649987594
 40
0.9946362425316695
 40
0.9946362425316695
 40
0.9946362425316695
 40
0.9946362425316695
 10
-3.742089597728309
 20
-2.037519075739096
 30
0.0
 10
-3.784137880782704
 20
-2.285305946295853
 30
0.0
 10
-3.846193713933256
 20
-2.650995567350671
 30
0.0
 10
-3.722562542151242
 20
-2.80345881023651
 30
0.0
 10
-3.224758285759039
 20
-3.339287659193172
 30
0.0
 10
-0.9479485898792909
 20
-5.714886486873763
 30
0.0
 10
-0.9403613423481654
 20
-5.907590222726348
 30
0.0
 10
-0.9667014876001057
 20
-6.111572570990179
 30
0.0
 10
-1.170932342858028
 20
-6.272327194143096
 30
0.0
 10
-1.558197202119521
 20
-6.334567805920705
 30
0.0
 10
-1.863135212720257
 20
-5.948114473557326
 30
0.0
 10
-4.443951626836734
 20
-3.878199358338033
 30
0.0
 10
-4.499748525187726
 20
-3.854712163369486
 30
0.0
  0
SPLINE
  5
100000B9
102
{ACAD_XDICTIONARY
360
100000BA
102
}
330
1F
100
AcDbEntity
  8
VISIBLE
100
AcDbSpline
210
0.0
220
0.0
230
1.0
 70
     8
 71
     3
 72
    13
 73
     9
 74
     0
 42
0.000000001
 43
0.00000001
 40
0.0
 40
0.0
 40
0.0
 40
0.0
 40
0.1522265021957542
 40
0.3452725676213476
 40
0.4760785461674086
 40
0.6094011309113507
 40
0.7682785178492737
 40
1.0
 40
1.0
 40
1.0
 40
1.0
 10
-4.499748525187725
 20
-3.854712163369487
 30
0.0
 10
-4.542174010353244
 20
-3.831553816528681
 30
0.0
 10
-4.639160739626028
 20
-3.778623026515733
 30
0.0
 10
-4.9095268866784
 20
-3.770534397860645
 30
0.0
 10
-5.002893232765089
 20
-3.859801364400842
 30
0.0
 10
-5.151370209735218
 20
-3.805159871077811
 30
0.0
 10
-5.183806506483126
 20
-3.593729250570976
 30
0.0
 10
-5.025274403142854
 20
-3.417399023793453
 30
0.0
 10
-4.950635858720995
 20
-3.308989694268685
 30
0.0
  0
LINE
  5
100000BC
102
{ACAD_XDICTIONARY
360
100000BD
102
}
330
1F
100
AcDbEntity
  8
VISIBLE
100
AcDbLine
 10
-4.950635858720995
 20
-3.308989694268685
 30
0.0
 11
-5.325774351755778
 21
-2.973431090670308
 31
0.0
  0
SPLINE
  5
100000BF
102
{ACAD_XDICTIONARY
360
100000C0
102
}
330
1F
100
AcDbEntity
  8
VISIBLE
100
AcDbSpline
210
0.0
220
0.0
230
1.0
 70
     8
 71
     3
 72
     8
 73
     4
 74
     0
 42
0.000000001
 43
0.00000001
 40
0.0
 40
0.0
 40
0.0
 40
0.0
 40
1.0
 40
1.0
 40
1.0
 40
1.0
 10
-5.325774351755778
 20
-2.973431090670308
 30
0.0
 10
-5.573757638142804
 20
-3.027855333067926
 30
0.0
 10
-5.848892521983369
 20
-3.082279575465545
 30
0.0
 10
-6.096875808370395
 20
-3.136703817863164
 30
0.0
  0
SPLINE
  5
100000C2
102
{ACAD_XDICTIONARY
360
100000C3
102
}
330
1F
100
AcDbEntity
  8
VISIBLE
100
AcDbSpline
210
0.0
220
0.0
230
1.0
 70
     8
 71
     3
 72
    19
 73
    15
 74
     0
 42
0.000000001
 43
0.00000001
 40
0.0
 40
0.0
 40
0.0
 40
0.0
 40
0.0862231157633672
 40
0.1538575023131802
 40
0.2030193741159971
 40
0.2587609431482785
 40
0.325421446922802
 40
0.4351056446458283
 40
0.5153785881769125
 40
0.5976761124598867
 40
0.7250957219282888
 40
0.8024332023449482
 40
0.8958448689984452
 40
1.0
 40
1.0
 40
1.0
 40
1.0
 10
-6.096875808370395
 20
-3.136703817863164
 30
0.0
 10
-6.265713333228938
 20
-3.255793943290481
 30
0.0
 10
-6.566988920888829
 20
-3.468299709130541
 30
0.0
 10
-6.852113382517341
 20
-3.723594661293616
 30
0.0
 10
-7.05417527080324
 20
-3.769812507688678
 30
0.0
 10
-7.314135987915735
 20
-3.774589914481555
 30
0.0
 10
-7.709712418159644
 20
-3.820115914503058
 30
0.0
 10
-8.31883487001482
 20
-2.955312804335302
 30
0.0
 10
-8.249095770071008
 20
-2.422699297399773
 30
0.0
 10
-8.07796981203574
 20
-1.883816444505545
 30
0.0
 10
-6.930755045626935
 20
-1.155969052740614
 30
0.0
 10
-6.488263418960436
 20
-1.052241129320374
 30
0.0
 10
-5.747118289157043
 20
-1.065274610330001
 30
0.0
 10
-5.196175648565699
 20
-1.025473081865516
 30
0.0
 10
-4.905724501985265
 20
-1.004490136044232
 30
0.0
  0
SPLINE
  5
100000C5
102
{ACAD_XDICTIONARY
360
100000C6
102
}
330
1F
100
AcDbEntity
  8
VISIBLE
100
AcDbSpline
210
0.0
220
0.0
230
1.0
 70
     8
 71
     3
 72
    17
 73
    13
 74
     0
 42
0.000000001
 43
0.00000001
 40
0.0
 40
0.0
 40
0.0
 40
0.0
 40
0.1504775927448077
 40
0.1781665232366472
 40
0.3053729714910051
 40
0.3941038461346971
 40
0.5386427895199726
 40
0.6177969653838349
 40
0.7023250283864211
 40
0.7734289296154904
 40
0.9408556894173005
 40
1.0
 40
1.0
 40
1.0
 40
1.0
 10
-17.03967024960856
 20
-28.20102483268798
 30
0.0
 10
-17.03429359141634
 20
-27.12856370444671
 30
0.0
 10
-17.02792759047716
 20
-25.858762220785
 30
0.0
 10
-17.0557731168752
 20
-25.81545097650363
 30
0.0
 10
-16.73204689686916
 20
-23.95786305929242
 30
0.0
 10
-17.17741764957714
 20
-23.4779197614814
 30
0.0
 10
-17.28160070786733
 20
-21.2126126798427
 30
0.0
 10
-17.05861114909151
 20
-20.52321586998043
 30
0.0
 10
-16.20682225734798
 20
-20.48174668031259
 30
0.0
 10
-15.5016461096658
 20
-20.60045885654148
 30
0.0
 10
-15.81716574362452
 20
-23.66651291724751
 30
0.0
 10
-15.8481253883186
 20
-23.94456253069247
 30
0.0
 10
-15.85620712107561
 20
-24.01714484522662
 30
0.0
  0
SPLINE
  5
100000C8
102
{ACAD_XDICTIONARY
360
100000C9
102
}
330
1F
100
AcDbEntity
  8
VISIBLE
100
AcDbSpline
210
0.0
220
0.0
230
1.0
 70
     8
 71
     3
 72
    10
 73
     6
 74
     0
 42
0.000000001
 43
0.00000001
 40
0.0
 40
0.0
 40
0.0
 40
0.0
 40
0.4055507960934763
 40
0.8380361556944578
 40
1.0
 40
1.0
 40
1.0
 40
1.0
 10
-15.85620712107561
 20
-24.01714484522662
 30
0.0
 10
-15.7475845306587
 20
-24.60417948587367
 30
0.0
 10
-15.51947574137056
 20
-25.72638879575484
 30
0.0
 10
-15.29528722866181
 20
-27.97456147626164
 30
0.0
 10
-15.3210416993319
 20
-28.19977370170129
 30
0.0
 10
-15.35208910468995
 20
-28.29240297707985
 30
0.0
  0
SPLINE
  5
100000CB
102
{ACAD_XDICTIONARY
360
100000CC
102
}
330
1F
100
AcDbEntity
  8
VISIBLE
100
AcDbSpline
210
0.0
220
0.0
230
1.0
 70
     8
 71
     3
 72
    10
 73
     6
 74
     0
 42
0.000000001
 43
0.00000001
 40
0.0
 40
0.0
 40
0.0
 40
0.0
 40
0.7811117260613087
 40
0.9475361120852227
 40
1.0
 40
1.0
 40
1.0
 40
1.0
 10
-15.35208910468995
 20
-28.29240297707986
 30
0.0
 10
-16.06456055415897
 20
-28.31401083413071
 30
0.0
 10
-16.98020647793417
 20
-28.37270249918414
 30
0.0
 10
-17.05118356585917
 20
-28.20693219459103
 30
0.0
 10
-17.04188576276295
 20
-28.20219626625931
 30
0.0
 10
-17.03967024960856
 20
-28.20102483268798
 30
0.0
  0
SPLINE
  5
100000CE
102
{ACAD_XDICTIONARY
360
100000CF
102
}
330
1F
100
AcDbEntity
  8
VISIBLE
100
AcDbSpline
210
0.0
220
0.0
230
1.0
 70
     8
 71
     3
 72
    23
 73
    19
 74
     0
 42
0.000000001
 43
0.00000001
 40
0.0
 40
0.0
 40
0.0
 40
0.0
 40
0.043007269730293
 40
0.1193312958576183
 40
0.1830524064946508
 40
0.2381404490742219
 40
0.2854399205058901
 40
0.3380140855817795
 40
0.382055905381643
 40
0.4511846751226956
 40
0.5311501644866453
 40
0.609724380603713
 40
0.6733489616528895
 40
0.7372133799683084
 40
0.7879356215393288
 40
0.8723571278325797
 40
0.9661965684160024
 40
1.0
 40
1.0
 40
1.0
 40
1.0
 10
-4.025911252329669
 20
-28.70352014781922
 30
0.0
 10
-4.096829765345681
 20
-28.66382066988809
 30
0.0
 10
-4.29360575488345
 20
-28.55366742891042
 30
0.0
 10
-5.17797434262669
 20
-28.23927427200551
 30
0.0
 10
-5.795216663086645
 20
-28.27728742723023
 30
0.0
 10
-6.272654969644623
 20
-28.5125729827735
 30
0.0
 10
-6.62439394901183
 20
-28.32528673055645
 30
0.0
 10
-6.863336061407316
 20
-27.92516607676207
 30
0.0
 10
-6.766492442207492
 20
-27.5396693182983
 30
0.0
 10
-5.943144161009959
 20
-27.36177731937436
 30
0.0
 10
-4.988730277298173
 20
-27.40691314577837
 30
0.0
 10
-4.036945199446264
 20
-27.71915579045692
 30
0.0
 10
-3.405741933782378
 20
-27.70962597249613
 30
0.0
 10
-2.761779711688114
 20
-27.95620320865355
 30
0.0
 10
-2.418326580362112
 20
-28.2413132084493
 30
0.0
 10
-1.321366128217251
 20
-28.18764764919019
 30
0.0
 10
0.0867270374582165
 20
-28.49589734987272
 30
0.0
 10
0.1572232710347838
 20
-28.67605032624812
 30
0.0
 10
0.1758926614062993
 20
-28.72375991400772
 30
0.0
  0
SPLINE
  5
100000D1
102
{ACAD_XDICTIONARY
360
100000D2
102
}
330
1F
100
AcDbEntity
  8
VISIBLE
100
AcDbSpline
210
0.0
220
0.0
230
1.0
 70
     8
 71
     3
 72
    24
 73
    20
 74
     0
 42
0.000000001
 43
0.00000001
 40
0.0
 40
0.0
 40
0.0
 40
0.0
 40
0.0309193132618525
 40
0.0741685275348797
 40
0.1643708232688988
 40
0.2290124311025168
 40
0.2865224061991122
 40
0.3019495778200934
 40
0.3570934820325871
 40
0.4098256654470778
 40
0.4870354704398541
 40
0.5649774325427781
 40
0.6428301790178443
 40
0.7015532026416498
 40
0.7448451408289158
 40
0.7921686098855583
 40
0.8363094154236977
 40
0.8954323961226085
 40
1.0
 40
1.0
 40
1.0
 40
1.0
 10
0.1758926614062993
 20
-28.72375991400772
 30
0.0
 10
0.1778480887734984
 20
-28.7805277006568
 30
0.0
 10
0.1825387223363563
 20
-28.91670094330028
 30
0.0
 10
-0.1686103262673966
 20
-28.96624057881658
 30
0.0
 10
-1.421347374139136
 20
-29.34268393644955
 30
0.0
 10
-1.969671121667934
 20
-29.28630561080586
 30
0.0
 10
-2.573510463729104
 20
-29.41217551730916
 30
0.0
 10
-2.60598848930457
 20
-29.39273421513206
 30
0.0
 10
-3.087965796397182
 20
-29.68635652278268
 30
0.0
 10
-3.492830684152478
 20
-29.57358803913745
 30
0.0
 10
-4.448396795590518
 20
-29.87659104306536
 30
0.0
 10
-5.352801762564098
 20
-29.98464622974031
 30
0.0
 10
-6.318671262456305
 20
-29.92615938605264
 30
0.0
 10
-6.850536251226401
 20
-29.58180860503209
 30
0.0
 10
-6.818348144592666
 20
-29.23092527724393
 30
0.0
 10
-6.592593787456288
 20
-28.90645020849175
 30
0.0
 10
-6.226588190081204
 20
-28.91320281395443
 30
0.0
 10
-5.678425045880216
 20
-29.23713903263043
 30
0.0
 10
-4.670064591178251
 20
-28.91152590708448
 30
0.0
 10
-4.025911252329669
 20
-28.70352014781922
 30
0.0
  0
SPLINE
  5
100000D4
102
{ACAD_XDICTIONARY
360
100000D5
102
}
330
1F
100
AcDbEntity
  8
VISIBLE
100
AcDbSpline
210
0.0
220
0.0
230
1.0
 70
    11
 71
     3
 72
    22
 73
    18
 74
     0
 42
0.000000001
 43
0.00000001
 40
0.0
 40
0.0
 40
0.0
 40
0.0
 40
0.0593286715220177
 40
0.1321152168164514
 40
0.1833202063806093
 40
0.2590186903346204
 40
0.3136365066839777
 40
0.4147824040021654
 40
0.4841840365977728
 40
0.5434664803385678
 40
0.6092145552036586
 40
0.7394503472626934
 40
0.7641976071394585
 40
0.8345668659323286
 40
0.8745745164597932
 40
0.9316784646931016
 40
1.0
 40
1.0
 40
1.0
 40
1.0
 10
-15.96624691655317
 20
-13.11847074763981
 30
0.0
 10
-15.73314487647522
 20
-13.1640478180558
 30
0.0
 10
-15.44743867213032
 20
-13.62138593184867
 30
0.0
 10
-14.63232585870854
 20
-14.57781263239287
 30
0.0
 10
-15.05331757124133
 20
-15.06042843297056
 30
0.0
 10
-15.72694870424952
 20
-16.20506004883081
 30
0.0
 10
-15.38335652534393
 20
-16.770140029735
 30
0.0
 10
-15.3661393435435
 20
-18.91929660144344
 30
0.0
 10
-15.41688256720263
 20
-20.10052289146847
 30
0.0
 10
-16.56630238283988
 20
-20.03394108201152
 30
0.0
 10
-16.70117563494706
 20
-19.13660385775091
 30
0.0
 10
-16.58815373242557
 20
-15.43501458262283
 30
0.0
 10
-16.51843249071964
 20
-15.38751836194208
 30
0.0
 10
-16.97638649631938
 20
-14.33741046518324
 30
0.0
 10
-17.25489155489363
 20
-14.14482638066616
 30
0.0
 10
-16.98261762662776
 20
-13.35866554677425
 30
0.0
 10
-16.2346818714027
 20
-13.06598524028347
 30
0.0
 10
-15.96624691655317
 20
-13.11847074763981
 30
0.0
  0
SPLINE
  5
100000D7
102
{ACAD_XDICTIONARY
360
100000D8
102
}
330
1F
100
AcDbEntity
  8
VISIBLE
100
AcDbSpline
210
0.0
220
0.0
230
1.0
 70
    11
 71
     3
 72
    20
 73
    16
 74
     0
 42
0.000000001
 43
0.00000001
 40
0.0
 40
0.0
 40
0.0
 40
0.0
 40
0.0413045040073421
 40
0.0911469156922495
 40
0.2176599528338307
 40
0.3160701339871561
 40
0.4039061463087236
 40
0.4961005144711071
 40
0.536514219796129
 40
0.5839291494098708
 40
0.6773799018467417
 40
0.775441925900757
 40
0.932235366565246
 40
0.9621766342348325
 40
1.0
 40
1.0
 40
1.0
 40
1.0
 10
-10.65214905213183
 20
-14.1753725648865
 30
0.0
 10
-10.56213260519605
 20
-14.18062233807397
 30
0.0
 10
-10.35129903208849
 20
-14.2209660506418
 30
0.0
 10
-10.43961222654615
 20
-14.67055495228007
 30
0.0
 10
-10.43672231617557
 20
-16.91869765204214
 30
0.0
 10
-10.42916477360564
 20
-18.21590628847984
 30
0.0
 10
-10.37801294822297
 20
-19.21684021428336
 30
0.0
 10
-10.42732442463257
 20
-20.62974776714095
 30
0.0
 10
-10.79120441004527
 20
-20.52464998306218
 30
0.0
 10
-11.22834019163147
 20
-20.45540773726839
 30
0.0
 10
-10.98365084252618
 20
-18.95083249852436
 30
0.0
 10
-11.08639566225103
 20
-18.00866038371713
 30
0.0
 10
-10.94634485664028
 20
-14.34214579944757
 30
0.0
 10
-10.87395936633552
 20
-14.18153173027925
 30
0.0
 10
-10.73457892459145
 20
-14.17056524190258
 30
0.0
 10
-10.65214905213183
 20
-14.1753725648865
 30
0.0
  0
SPLINE
  5
100000DA
102
{ACAD_XDICTIONARY
360
100000DB
102
}
330
1F
100
AcDbEntity
  8
VISIBLE
100
AcDbSpline
210
0.0
220
0.0
230
1.0
 70
    11
 71
     3
 72
    17
 73
    13
 74
     0
 42
0.000000001
 43
0.00000001
 40
0.0
 40
0.0
 40
0.0
 40
0.0
 40
0.1228308068049832
 40
0.2717516462440401
 40
0.492272037754269
 40
0.5046575455073056
 40
0.5369233235315004
 40
0.6012217623201758
 40
0.6343598633264904
 40
0.921002021684101
 40
0.9680442670952594
 40
1.0
 40
1.0
 40
1.0
 40
1.0
 10
-11.72565569089154
 20
-20.08423091858391
 30
0.0
 10
-11.83010609588365
 20
-20.02691275518689
 30
0.0
 10
-12.15345552993757
 20
-18.85856025728931
 30
0.0
 10
-12.06278908171589
 20
-17.89437841685585
 30
0.0
 10
-12.10625289174955
 20
-14.26047121202594
 30
0.0
 10
-12.12535428184573
 20
-14.23517236840687
 30
0.0
 10
-12.0475609716351
 20
-14.20044902362708
 30
0.0
 10
-11.74523733964127
 20
-14.21496259115299
 30
0.0
 10
-11.72791011634542
 20
-14.27832580381628
 30
0.0
 10
-11.57618254889537
 20
-19.95514128082441
 30
0.0
 10
-11.63828277935492
 20
-20.0572365385178
 30
0.0
 10
-11.69848181382811
 20
-20.0991428447346
 30
0.0
 10
-11.72565569089154
 20
-20.08423091858391
 30
0.0
  0
SPLINE
  5
100000DD
102
{ACAD_XDICTIONARY
360
100000DE
102
}
330
1F
100
AcDbEntity
  8
VISIBLE
100
AcDbSpline
210
0.0
220
0.0
230
1.0
 70
    11
 71
     3
 72
    23
 73
    19
 74
     0
 42
0.000000001
 43
0.00000001
 40
0.0
 40
0.0
 40
0.0
 40
0.0
 40
0.0412771760815009
 40
0.1242860733575454
 40
0.1698629533242152
 40
0.2345650178003967
 40
0.2952463341905018
 40
0.4027724113179447
 40
0.4715446448212535
 40
0.5172200026923047
 40
0.5635139951259728
 40
0.6227128012516168
 40
0.6425157588051156
 40
0.7653389369136082
 40
0.8319299046569202
 40
0.8832367660205324
 40
0.9331873548765578
 40
1.0
 40
1.0
 40
1.0
 40
1.0
 10
-10.82679183464351
 20
-6.979109030070267
 30
0.0
 10
-11.04906888384992
 20
-7.109030137519289
 30
0.0
 10
-11.49992637875506
 20
-7.215302569329997
 30
0.0
 10
-13.07273244824041
 20
-4.77184855326401
 30
0.0
 10
-12.17005897713481
 20
-4.37384693614042
 30
0.0
 10
-11.45360182680528
 20
-2.865584020332958
 30
0.0
 10
-11.87805035448632
 20
-1.689599638382985
 30
0.0
 10
-11.86158347731655
 20
2.317155467524539
 30
0.0
 10
-11.87000013511873
 20
4.121611078982208
 30
0.0
 10
-10.94601576191606
 20
4.391923049433595
 30
0.0
 10
-10.09298742660785
 20
4.16261088981379
 30
0.0
 10
-10.09056825227809
 20
2.709306709900066
 30
0.0
 10
-10.06659316584435
 20
2.681416067250915
 30
0.0
 10
-10.53776943502181
 20
-2.884803164912243
 30
0.0
 10
-10.20505436346919
 20
-4.126790254209519
 30
0.0
 10
-9.559107399240464
 20
-4.993572390269144
 30
0.0
 10
-9.506093338028922
 20
-5.96802956319442
 30
0.0
 10
-10.46700662117854
 20
-6.768814294090826
 30
0.0
 10
-10.82679183464351
 20
-6.979109030070267
 30
0.0
  0
SPLINE
  5
100000E0
102
{ACAD_XDICTIONARY
360
100000E1
102
}
330
1F
100
AcDbEntity
  8
VISIBLE
100
AcDbSpline
210
0.0
220
0.0
230
1.0
 70
    11
 71
     3
 72
    25
 73
    21
 74
     0
 42
0.000000001
 43
0.00000001
 40
0.0
 40
0.0
 40
0.0
 40
0.0
 40
0.0420710223131698
 40
0.0882693591527131
 40
0.1433043443505922
 40
0.2080859092074938
 40
0.3078903209656269
 40
0.3479421846978707
 40
0.4052536759567903
 40
0.4485159297931922
 40
0.4947171202242991
 40
0.5379138450746194
 40
0.5895863106202441
 40
0.6541606216654816
 40
0.7474717905092159
 40
0.8057310353761631
 40
0.853451944955173
 40
0.9121475961795076
 40
0.9638771239404443
 40
1.0
 40
1.0
 40
1.0
 40
1.0
 10
-12.76353564788038
 20
-6.299047606197868
 30
0.0
 10
-12.65773717672705
 20
-6.342394247402384
 30
0.0
 10
-12.40704159008752
 20
-6.519100116258338
 30
0.0
 10
-12.27459346877727
 20
-6.99933320383489
 30
0.0
 10
-12.47513776790078
 20
-7.700097902083848
 30
0.0
 10
-12.56525043644343
 20
-8.485908270062225
 30
0.0
 10
-12.7111718355744
 20
-10.79027091873051
 30
0.0
 10
-12.43190168016332
 20
-11.0147500476513
 30
0.0
 10
-12.37217441902167
 20
-11.81083995337917
 30
0.0
 10
-12.5884786780314
 20
-12.18667921600974
 30
0.0
 10
-13.11073556842514
 20
-12.30119513457777
 30
0.0
 10
-13.50360861814991
 20
-12.01938550227578
 30
0.0
 10
-13.50369685163416
 20
-11.35144777366707
 30
0.0
 10
-13.31765002069342
 20
-10.51553024282238
 30
0.0
 10
-13.27236516629892
 20
-8.613702330460391
 30
0.0
 10
-13.30632110036131
 20
-7.860519087997755
 30
0.0
 10
-13.47125280305787
 20
-7.390180457971221
 30
0.0
 10
-13.70914092833651
 20
-6.553243699964611
 30
0.0
 10
-13.05076105772052
 20
-6.244600559293831
 30
0.0
 10
-12.85437596624282
 20
-6.261829462645919
 30
0.0
 10
-12.76353564788038
 20
-6.299047606197868
 30
0.0
  0
SPLINE
  5
100000E3
102
{ACAD_XDICTIONARY
360
100000E4
102
}
330
1F
100
AcDbEntity
  8
VISIBLE
100
AcDbSpline
210
0.0
220
0.0
230
1.0
 70
    11
 71
     3
 72
    21
 73
    17
 74
     0
 42
0.000000001
 43
0.00000001
 40
0.0
 40
0.0
 40
0.0
 40
0.0
 40
0.0503928856781969
 40
0.105891604733513
 40
0.1857007877860687
 40
0.283806917406959
 40
0.3799112082219649
 40
0.4409202407914217
 40
0.4923746394437342
 40
0.5578116276430877
 40
0.626748713988712
 40
0.702800582221881
 40
0.8185491072964582
 40
0.8820870052213062
 40
0.9469826196613056
 40
1.0
 40
1.0
 40
1.0
 40
1.0
 10
-10.31383402704254
 20
-7.586070871728612
 30
0.0
 10
-10.18278779298888
 20
-7.562769439175836
 30
0.0
 10
-9.912083444753474
 20
-7.560608830517466
 30
0.0
 10
-9.683630569297787
 20
-8.0396060014822
 30
0.0
 10
-9.792208732274077
 20
-8.950853381358257
 30
0.0
 10
-9.95696439248426
 20
-10.22619276932997
 30
0.0
 10
-10.01849887689334
 20
-11.52832765261576
 30
0.0
 10
-9.927432948887473
 20
-12.07609813282693
 30
0.0
 10
-10.16386287421816
 20
-12.47095428646537
 30
0.0
 10
-10.96250819707568
 20
-12.40904880820028
 30
0.0
 10
-10.96474595216938
 20
-11.56099852328321
 30
0.0
 10
-10.83113247634829
 20
-10.87069784107664
 30
0.0
 10
-10.58264833480666
 20
-8.91955778096285
 30
0.0
 10
-10.6944433513342
 20
-8.432827862427816
 30
0.0
 10
-10.76380295223801
 20
-7.71993905299536
 30
0.0
 10
-10.45170523523538
 20
-7.610585858228412
 30
0.0
 10
-10.31383402704254
 20
-7.586070871728612
 30
0.0
  0
SPLINE
  5
100000E6
102
{ACAD_XDICTIONARY
360
100000E7
102
}
330
1F
100
AcDbEntity
  8
VISIBLE
100
AcDbSpline
210
0.0
220
0.0
230
1.0
 70
    11
 71
     3
 72
    36
 73
    32
 74
     0
 42
0.000000001
 43
0.00000001
 40
0.0
 40
0.0
 40
0.0
 40
0.0
 40
0.0169778781832177
 40
0.0481612322882661
 40
0.0917535947126471
 40
0.1398455903678361
 40
0.1666368723234486
 40
0.1882306317076558
 40
0.221425582782198
 40
0.2726018561677928
 40
0.3137007968333358
 40
0.3450694597367938
 40
0.3652652250699012
 40
0.3901209484005467
 40
0.4142202874266997
 40
0.4490109119025618
 40
0.5018002475823765
 40
0.5317422326605958
 40
0.5556686893388366
 40
0.597181141901223
 40
0.63990838955073
 40
0.6697219246831944
 40
0.696303212301027
 40
0.7206095693222403
 40
0.7646265181954114
 40
0.8250515209086138
 40
0.8511957126987773
 40
0.8825678706818733
 40
0.9243630704674376
 40
0.9831570010985524
 40
1.0
 40
1.0
 40
1.0
 40
1.0
 10
-7.217313478312155
 20
-27.04806919172993
 30
0.0
 10
-7.159933679020984
 20
-27.07110766252631
 30
0.0
 10
-6.921298150438748
 20
-27.11562821450057
 30
0.0
 10
-6.821531007294451
 20
-26.27611408444369
 30
0.0
 10
-6.588301972147872
 20
-25.11645559012318
 30
0.0
 10
-6.696177937588178
 20
-23.44001932180041
 30
0.0
 10
-6.327364845571068
 20
-23.01062888559778
 30
0.0
 10
-6.11372143177109
 20
-22.69831849254171
 30
0.0
 10
-6.109536153855975
 20
-21.88978563513367
 30
0.0
 10
-5.828773418339457
 20
-20.10289789762613
 30
0.0
 10
-5.975805747207817
 20
-18.99282481323904
 30
0.0
 10
-6.203891991610887
 20
-18.24726896496146
 30
0.0
 10
-6.536078410812027
 20
-18.13390150425733
 30
0.0
 10
-6.986184651859028
 20
-18.33844374362639
 30
0.0
 10
-7.075549653691052
 20
-18.83214587423305
 30
0.0
 10
-6.520328240808703
 20
-19.58584052599149
 30
0.0
 10
-6.97379551190371
 20
-21.38957300541214
 30
0.0
 10
-7.203695003251497
 20
-22.33706718689587
 30
0.0
 10
-7.354169451129713
 20
-21.62891636809351
 30
0.0
 10
-7.817509778496143
 20
-20.62308871294236
 30
0.0
 10
-7.813499651721292
 20
-19.32178198548866
 30
0.0
 10
-7.459131980921984
 20
-18.71789686360093
 30
0.0
 10
-7.865920914104223
 20
-18.23365636323207
 30
0.0
 10
-8.452238435252951
 20
-18.2904205670237
 30
0.0
 10
-8.854757231729122
 20
-19.74409879483258
 30
0.0
 10
-7.966475345250416
 20
-22.18175024209683
 30
0.0
 10
-8.357090002641266
 20
-22.70103801533593
 30
0.0
 10
-7.629147601765284
 20
-23.30043000452445
 30
0.0
 10
-7.843734708365505
 20
-24.42012516653932
 30
0.0
 10
-7.411665571730033
 20
-26.89011885080155
 30
0.0
 10
-7.274237428760911
 20
-27.02521374806808
 30
0.0
 10
-7.217313478312155
 20
-27.04806919172993
 30
0.0
  0
SPLINE
  5
100000E9
102
{ACAD_XDICTIONARY
360
100000EA
102
}
330
1F
100
AcDbEntity
  8
VISIBLE
100
AcDbSpline
210
0.0
220
0.0
230
1.0
 70
    11
 71
     3
 72
    35
 73
    31
 74
     0
 42
0.000000001
 43
0.00000001
 40
0.0
 40
0.0
 40
0.0
 40
0.0
 40
0.0201836123787755
 40
0.0475378303918178
 40
0.0894298965398084
 40
0.1210986375418555
 40
0.1703774026969624
 40
0.2064788456892039
 40
0.2523770399040012
 40
0.3052459261470103
 40
0.3285395157282078
 40
0.3508237241143523
 40
0.3937753548018247
 40
0.4430086114932542
 40
0.4853381923869826
 40
0.5434789171258833
 40
0.5918781328987168
 40
0.6240062069151544
 40
0.6491988962897389
 40
0.6807354676201716
 40
0.7214914404884135
 40
0.766344169469932
 40
0.796098863728301
 40
0.8145413494615958
 40
0.8382068382878729
 40
0.8798915599907732
 40
0.9093343243248216
 40
0.9446256969200687
 40
0.9736414914196703
 40
1.0
 40
1.0
 40
1.0
 40
1.0
 10
-4.986812045255046
 20
-17.80017271755248
 30
0.0
 10
-5.000005931556029
 20
-17.73883241508526
 30
0.0
 10
-4.902421899593224
 20
-17.60995307937958
 30
0.0
 10
-4.610292979753141
 20
-17.47444855203761
 30
0.0
 10
-3.799983438507628
 20
-17.39468574990525
 30
0.0
 10
-3.426810483625825
 20
-17.52666759831463
 30
0.0
 10
-2.395434255846637
 20
-17.9495143766206
 30
0.0
 10
-1.994492659932765
 20
-18.4301873524715
 30
0.0
 10
-1.081578651731315
 20
-18.26467569057369
 30
0.0
 10
0.265539166745969
 20
-18.41847346161394
 30
0.0
 10
0.2327158099939025
 20
-18.76466586391864
 30
0.0
 10
0.2527730349648162
 20
-19.07924786325276
 30
0.0
 10
-0.6849242033417077
 20
-19.10230349537891
 30
0.0
 10
-1.724495738481525
 20
-18.87179056021248
 30
0.0
 10
-2.382456551374964
 20
-19.39451226310764
 30
0.0
 10
-3.812407501008074
 20
-19.82583024260256
 30
0.0
 10
-4.849560376115653
 20
-19.69813830275567
 30
0.0
 10
-5.228840301300521
 20
-19.21117696609461
 30
0.0
 10
-4.910088774278327
 20
-18.94239726784012
 30
0.0
 10
-4.47046903750978
 20
-19.10901515545341
 30
0.0
 10
-3.761572167612425
 20
-19.26776473495086
 30
0.0
 10
-2.937817959238608
 20
-18.93991223043675
 30
0.0
 10
-2.585146949530203
 20
-18.73522221092431
 30
0.0
 10
-2.534590694235776
 20
-18.5117074119104
 30
0.0
 10
-2.820059791426168
 20
-18.44226529931625
 30
0.0
 10
-3.510877667228629
 20
-18.12742078033342
 30
0.0
 10
-3.807063710310495
 20
-17.93005292788126
 30
0.0
 10
-4.394534009700299
 20
-17.92010842469022
 30
0.0
 10
-4.737665489871553
 20
-18.07228923284171
 30
0.0
 10
-4.969581672478065
 20
-17.88027923459016
 30
0.0
 10
-4.986812045255046
 20
-17.80017271755248
 30
0.0
  0
SPLINE
  5
100000EC
102
{ACAD_XDICTIONARY
360
100000ED
102
}
330
1F
100
AcDbEntity
  8
VISIBLE
100
AcDbSpline
210
0.0
220
0.0
230
1.0
 70
    11
 71
     3
 72
    32
 73
    28
 74
     0
 42
0.000000001
 43
0.00000001
 40
0.0
 40
0.0
 40
0.0
 40
0.0
 40
0.0226906570515159
 40
0.0579830778578026
 40
0.0989142637575632
 40
0.1392393842058052
 40
0.1787004815604193
 40
0.2029938249598816
 40
0.2411733974647197
 40
0.2852912963212614
 40
0.3280494152371401
 40
0.3614951919267106
 40
0.388273992634689
 40
0.423830060838834
 40
0.4706120244745696
 40
0.5290092271303439
 40
0.5639380100914207
 40
0.619676665474104
 40
0.6644659358917291
 40
0.7061073513184426
 40
0.7396291034756753
 40
0.7962249261223354
 40
0.8400305955341846
 40
0.8973336182349524
 40
0.9408439262040998
 40
0.9780297341868702
 40
1.0
 40
1.0
 40
1.0
 40
1.0
 10
-8.06953846000311
 20
-24.13604437835573
 30
0.0
 10
-8.079445162353014
 20
-24.207188676456
 30
0.0
 10
-8.215279254319903
 20
-24.39675634696924
 30
0.0
 10
-8.788693196793563
 20
-24.22184836091674
 30
0.0
 10
-9.546394947173393
 20
-24.3147388646111
 30
0.0
 10
-10.04954119612976
 20
-24.81248377181275
 30
0.0
 10
-10.71793847532078
 20
-25.10059289876646
 30
0.0
 10
-10.79758828014853
 20
-25.47822723943271
 30
0.0
 10
-10.16634949432837
 20
-25.83167517769113
 30
0.0
 10
-9.607903597604627
 20
-26.42639536159231
 30
0.0
 10
-8.82805898576249
 20
-26.71894082465549
 30
0.0
 10
-8.235248365007758
 20
-26.48886218844449
 30
0.0
 10
-8.159689071752044
 20
-27.03149773438336
 30
0.0
 10
-8.830825835630424
 20
-27.21370627820582
 30
0.0
 10
-9.740195554578186
 20
-26.99092269054964
 30
0.0
 10
-10.88170480118594
 20
-25.90005170431531
 30
0.0
 10
-11.38159840744757
 20
-25.71627995946969
 30
0.0
 10
-12.75329564023227
 20
-25.76410278627184
 30
0.0
 10
-13.80747850061921
 20
-25.67435638212938
 30
0.0
 10
-13.65913502055785
 20
-24.57350599188597
 30
0.0
 10
-13.06617925640914
 20
-24.55314982917124
 30
0.0
 10
-11.63926812009906
 20
-24.73166719480838
 30
0.0
 10
-10.82819721086596
 20
-24.72484918387626
 30
0.0
 10
-9.598908226259914
 20
-23.79329750774233
 30
0.0
 10
-8.786087929581027
 20
-23.67703068361764
 30
0.0
 10
-8.14329363491816
 20
-23.88935384997786
 30
0.0
 10
-8.059946279244977
 20
-24.06715879532469
 30
0.0
 10
-8.06953846000311
 20
-24.13604437835573
 30
0.0
  0
SPLINE
  5
100000EF
102
{ACAD_XDICTIONARY
360
100000F0
102
}
330
1F
100
AcDbEntity
  8
VISIBLE
100
AcDbSpline
210
0.0
220
0.0
230
1.0
 70
    11
 71
     3
 72
    21
 73
    17
 74
     0
 42
0.000000001
 43
0.00000001
 40
0.0
 40
0.0
 40
0.0
 40
0.0
 40
0.0905869433653158
 40
0.1996306083221367
 40
0.2639091702796907
 40
0.3252521039308689
 40
0.3776143219388642
 40
0.4408688438570805
 40
0.5130378227065558
 40
0.5758704672509929
 40
0.6462495786854261
 40
0.7174124586425653
 40
0.8220048700667271
 40
0.9207872270585742
 40
0.9711188976346864
 40
1.0
 40
1.0
 40
1.0
 40
1.0
 10
-14.29356106622951
 20
-23.99640055153314
 30
0.0
 10
-14.17396334215711
 20
-24.16299570558944
 30
0.0
 10
-14.2568839800169
 20
-25.44129619716529
 30
0.0
 10
-13.93697473010537
 20
-27.2509315450168
 30
0.0
 10
-14.00630333690318
 20
-27.93681922374987
 30
0.0
 10
-13.80277669902778
 20
-28.57491143227076
 30
0.0
 10
-13.69924555031505
 20
-29.00051051370137
 30
0.0
 10
-13.80130422254054
 20
-29.75216574068729
 30
0.0
 10
-14.82671296996086
 20
-30.0260253109367
 30
0.0
 10
-15.28140709126693
 20
-29.36074720745035
 30
0.0
 10
-15.09219201656095
 20
-28.50842950028398
 30
0.0
 10
-14.77818579673937
 20
-27.73620652772583
 30
0.0
 10
-14.79485128938508
 20
-25.95638583134969
 30
0.0
 10
-14.56225114579852
 20
-24.45363500307918
 30
0.0
 10
-14.480105153415
 20
-23.91287849993592
 30
0.0
 10
-14.33169144112983
 20
-23.94328636620886
 30
0.0
 10
-14.29356106622951
 20
-23.99640055153314
 30
0.0
  0
SPLINE
  5
100000F2
102
{ACAD_XDICTIONARY
360
100000F3
102
}
330
1F
100
AcDbEntity
  8
VISIBLE
100
AcDbSpline
210
0.0
220
0.0
230
1.0
 70
    11
 71
     3
 72
    41
 73
    37
 74
     0
 42
0.000000001
 43
0.00000001
 40
0.0
 40
0.0
 40
0.0
 40
0.0
 40
0.0134350058419441
 40
0.0401930353418862
 40
0.0760280406124342
 40
0.109666284912229
 40
0.1377797608700949
 40
0.1719404916527718
 40
0.2017248251786663
 40
0.2399038639936797
 40
0.2716349118604898
 40
0.31009651957642
 40
0.3235861135115474
 40
0.3552819062059094
 40
0.3682079118194661
 40
0.4048789092812172
 40
0.4447918473285909
 40
0.4742316240437289
 40
0.5137581368170655
 40
0.5579975646538373
 40
0.5921518027763162
 40
0.6288385508836011
 40
0.6461878639702492
 40
0.6642154002287706
 40
0.6871563234416008
 40
0.7140384546572961
 40
0.7324087410286675
 40
0.7710264968296542
 40
0.8068757750214683
 40
0.8299833121696073
 40
0.8480171743029883
 40
0.8773873743815577
 40
0.9147770368475812
 40
0.955721417244269
 40
0.9825585739458279
 40
1.0
 40
1.0
 40
1.0
 40
1.0
 10
0.1766937088191979
 20
-20.20823908603098
 30
0.0
 10
0.1875219357675947
 20
-20.17207035381658
 30
0.0
 10
0.1961421237394843
 20
-20.08756179942695
 30
0.0
 10
-0.1742817831932714
 20
-19.8084553831369
 30
0.0
 10
-0.8625072371528425
 20
-19.81067143397235
 30
0.0
 10
-1.491274327890317
 20
-19.93490715490679
 30
0.0
 10
-1.851623297054631
 20
-20.17449525354527
 30
0.0
 10
-2.437969256829379
 20
-20.50464155296284
 30
0.0
 10
-2.752899838277669
 20
-20.87837629913779
 30
0.0
 10
-3.64316778975483
 20
-20.95561439490942
 30
0.0
 10
-4.099264125342526
 20
-20.83850448040786
 30
0.0
 10
-4.963545695431697
 20
-21.01005236185291
 30
0.0
 10
-5.08665753046819
 20
-21.02031785241666
 30
0.0
 10
-5.090717157552441
 20
-21.63942585513179
 30
0.0
 10
-4.998675682116319
 20
-21.70046516276657
 30
0.0
 10
-4.208695107959453
 20
-21.74813216682209
 30
0.0
 10
-3.38858031179002
 20
-21.66192043862733
 30
0.0
 10
-2.873016564898105
 20
-21.63846187882388
 30
0.0
 10
-2.128198887027306
 20
-22.10755717612539
 30
0.0
 10
-1.137736065107556
 20
-22.57288469530765
 30
0.0
 10
-0.5383380169359577
 20
-22.59148442775409
 30
0.0
 10
0.2623445272817578
 20
-22.38294936052089
 30
0.0
 10
0.2938531772009612
 20
-22.17837428600668
 30
0.0
 10
0.2565601169955313
 20
-21.94683653854698
 30
0.0
 10
-0.0715396355757105
 20
-21.96868413848983
 30
0.0
 10
-0.470581847235296
 20
-22.00276887835112
 30
0.0
 10
-0.6491419048632481
 20
-22.06903968964539
 30
0.0
 10
-1.477896260126004
 20
-21.85612989919037
 30
0.0
 10
-2.090479387815503
 20
-21.60800645270437
 30
0.0
 10
-2.332924139766932
 20
-21.36415295632232
 30
0.0
 10
-2.306339632697215
 20
-21.12523407448528
 30
0.0
 10
-1.848617063002353
 20
-20.88234939396317
 30
0.0
 10
-1.284380354041369
 20
-20.3719518560561
 30
0.0
 10
-0.3481829804121916
 20
-20.35965723932235
 30
0.0
 10
0.0929480094277322
 20
-20.4082866489606
 30
0.0
 10
0.1626364228127685
 20
-20.25519360736218
 30
0.0
 10
0.1766937088191979
 20
-20.20823908603098
 30
0.0
  0
SPLINE
  5
100000F5
102
{ACAD_XDICTIONARY
360
100000F6
102
}
330
1F
100
AcDbEntity
  8
VISIBLE
100
AcDbSpline
210
0.0
220
0.0
230
1.0
 70
    11
 71
     3
 72
    40
 73
    36
 74
     0
 42
0.000000001
 43
0.00000001
 40
0.0
 40
0.0
 40
0.0
 40
0.0
 40
0.0190064326580366
 40
0.0456207098927889
 40
0.0795778682542231
 40
0.1114007874955627
 40
0.1372531419963963
 40
0.1663593730458626
 40
0.1834266157782641
 40
0.2063838446014939
 40
0.2390680759761462
 40
0.2686604358562819
 40
0.3070221057751352
 40
0.3309889251958566
 40
0.3496328856142229
 40
0.3693404698214075
 40
0.3876234974972326
 40
0.4103169581511986
 40
0.4550977192184681
 40
0.4920578897707866
 40
0.5287608940402634
 40
0.5577411176040808
 40
0.5993868639929426
 40
0.6352753602849296
 40
0.6719999916392942
 40
0.6892519584184498
 40
0.7069527259661621
 40
0.7350922517671982
 40
0.7700520008858601
 40
0.8134194961005532
 40
0.8436052944337162
 40
0.8924478319226785
 40
0.9312774327855704
 40
0.9752002075058456
 40
1.0
 40
1.0
 40
1.0
 40
1.0
 10
0.1736535456060894
 20
-25.90474415951826
 30
0.0
 10
0.1538688088065083
 20
-25.98537187347877
 30
0.0
 10
-0.0093945174180553
 20
-26.13156177754749
 30
0.0
 10
-0.473384518605477
 20
-25.9447988689996
 30
0.0
 10
-1.163612259110445
 20
-25.72844385435961
 30
0.0
 10
-1.84381554721883
 20
-25.83010252894128
 30
0.0
 10
-2.228839319224097
 20
-25.92510584542919
 30
0.0
 10
-2.804656066480522
 20
-26.12492898574698
 30
0.0
 10
-2.81259022321298
 20
-26.38771048499394
 30
0.0
 10
-2.552428090062036
 20
-26.65645145051371
 30
0.0
 10
-1.869033614500145
 20
-26.87465262118369
 30
0.0
 10
-1.347633655518772
 20
-26.94309451102497
 30
0.0
 10
-0.4002273391382227
 20
-26.86825971556845
 30
0.0
 10
0.0198342290830842
 20
-26.73417579710026
 30
0.0
 10
0.1237778390179475
 20
-27.01308032743599
 30
0.0
 10
0.0937950693577819
 20
-27.27633833295447
 30
0.0
 10
-0.1118594441782203
 20
-27.42056464678014
 30
0.0
 10
-0.4264578459892683
 20
-27.55839625407485
 30
0.0
 10
-1.770533888039547
 20
-27.60677897413467
 30
0.0
 10
-2.565144933074212
 20
-27.40266482938423
 30
0.0
 10
-3.318180513985267
 20
-26.80215907262349
 30
0.0
 10
-3.854017282240424
 20
-26.75955355472962
 30
0.0
 10
-5.040679684077229
 20
-26.74474136707114
 30
0.0
 10
-5.731574385455948
 20
-26.52799244137152
 30
0.0
 10
-6.702797916455346
 20
-26.36585561180969
 30
0.0
 10
-6.736803538716745
 20
-26.12127502626024
 30
0.0
 10
-6.731581401527238
 20
-25.83121855546355
 30
0.0
 10
-6.094988394525028
 20
-25.89150120257064
 30
0.0
 10
-5.40322632963609
 20
-25.81418364724111
 30
0.0
 10
-4.120699112405166
 20
-25.50141896035711
 30
0.0
 10
-3.601827619852223
 20
-26.0316366160171
 30
0.0
 10
-2.132745856637934
 20
-25.02055647288404
 30
0.0
 10
-1.24460288623468
 20
-25.07911309957023
 30
0.0
 10
0.0434447357623652
 20
-25.41496310836675
 30
0.0
 10
0.1994688774997157
 20
-25.79954027347217
 30
0.0
 10
0.1736535456060894
 20
-25.90474415951826
 30
0.0
  0
ENDSEC
  0
SECTION
  2
OBJECTS
  0
DICTIONARY
  5
C
330
0
100
AcDbDictionary
  3
ACAD_GROUP
350
D
  3
ACAD_LAYOUT
350
1A
  3
ACAD_MATERIAL
350
43
  3
ACAD_MLEADERSTYLE
350
6B
  3
ACAD_MLINESTYLE
350
17
  3
ACAD_PLOTSETTINGS
350
19
  3
ACAD_SCALELIST
350
47
  3
ACAD_VISUALSTYLE
350
2A
  3
ACDBHEADERROUNDTRIPXREC
350
100000FA
  3
ACDBVARIABLEDICTIONARY
350
1000011B
  3
DWGPROPS
350
10000122
  3
ONSHAPE_DATA
350
10000001
  0
DICTIONARY
  5
10000123
330
8
100
AcDbDictionary
280
     1
  3
ACAD_XREC_ROUNDTRIP
360
10000124
  0
DICTIONARY
  5
100000F8
330
1F
100
AcDbDictionary
280
     1
  3
ACAD_SORTENTS
360
100000F9
  0
DICTIONARY
  5
10000051
330
10000050
100
AcDbDictionary
280
     1
  3
BTDETID
360
10000052
  0
DICTIONARY
  5
10000054
330
10000053
100
AcDbDictionary
280
     1
  3
BTDETID
360
10000055
  0
DICTIONARY
  5
10000057
330
10000056
100
AcDbDictionary
280
     1
  3
BTDETID
360
10000058
  0
DICTIONARY
  5
1000005A
330
10000059
100
AcDbDictionary
280
     1
  3
BTDETID
360
1000005B
  0
DICTIONARY
  5
1000005D
330
1000005C
100
AcDbDictionary
280
     1
  3
BTDETID
360
1000005E
  0
DICTIONARY
  5
10000060
330
1000005F
100
AcDbDictionary
280
     1
  3
BTDETID
360
10000061
  0
DICTIONARY
  5
10000063
330
10000062
100
AcDbDictionary
280
     1
  3
BTDETID
360
10000064
  0
DICTIONARY
  5
10000066
330
10000065
100
AcDbDictionary
280
     1
  3
BTDETID
360
10000067
  0
DICTIONARY
  5
10000069
330
10000068
100
AcDbDictionary
280
     1
  3
BTDETID
360
1000006A
  0
DICTIONARY
  5
1000006C
330
1000006B
100
AcDbDictionary
280
     1
  3
BTDETID
360
1000006D
  0
DICTIONARY
  5
1000006F
330
1000006E
100
AcDbDictionary
280
     1
  3
BTDETID
360
10000070
  0
DICTIONARY
  5
10000072
330
10000071
100
AcDbDictionary
280
     1
  3
BTDETID
360
10000073
  0
DICTIONARY
  5
10000075
330
10000074
100
AcDbDictionary
280
     1
  3
BTDETID
360
10000076
  0
DICTIONARY
  5
10000078
330
10000077
100
AcDbDictionary
280
     1
  3
BTDETID
360
10000079
  0
DICTIONARY
  5
1000007B
330
1000007A
100
AcDbDictionary
280
     1
  3
BTDETID
360
1000007C
  0
DICTIONARY
  5
1000007E
330
1000007D
100
AcDbDictionary
280
     1
  3
BTDETID
360
1000007F
  0
DICTIONARY
  5
10000081
330
10000080
100
AcDbDictionary
280
     1
  3
BTDETID
360
10000082
  0
DICTIONARY
  5
10000084
330
10000083
100
AcDbDictionary
280
     1
  3
BTDETID
360
10000085
  0
DICTIONARY
  5
10000087
330
10000086
100
AcDbDictionary
280
     1
  3
BTDETID
360
10000088
  0
DICTIONARY
  5
1000008A
330
10000089
100
AcDbDictionary
280
     1
  3
BTDETID
360
1000008B
  0
DICTIONARY
  5
1000008D
330
1000008C
100
AcDbDictionary
280
     1
  3
BTDETID
360
1000008E
  0
DICTIONARY
  5
10000090
330
1000008F
100
AcDbDictionary
280
     1
  3
BTDETID
360
10000091
  0
DICTIONARY
  5
10000093
330
10000092
100
AcDbDictionary
280
     1
  3
BTDETID
360
10000094
  0
DICTIONARY
  5
10000096
330
10000095
100
AcDbDictionary
280
     1
  3
BTDETID
360
10000097
  0
DICTIONARY
  5
10000099
330
10000098
100
AcDbDictionary
280
     1
  3
BTDETID
360
1000009A
  0
DICTIONARY
  5
1000009C
330
1000009B
100
AcDbDictionary
280
     1
  3
BTDETID
360
1000009D
  0
DICTIONARY
  5
1000009F
330
1000009E
100
AcDbDictionary
280
     1
  3
BTDETID
360
100000A0
  0
DICTIONARY
  5
100000A2
330
100000A1
100
AcDbDictionary
280
     1
  3
BTDETID
360
100000A3
  0
DICTIONARY
  5
100000A5
330
100000A4
100
AcDbDictionary
280
     1
  3
BTDETID
360
100000A6
  0
DICTIONARY
  5
100000A8
330
100000A7
100
AcDbDictionary
280
     1
  3
BTDETID
360
100000A9
  0
DICTIONARY
  5
100000AB
330
100000AA
100
AcDbDictionary
280
     1
  3
BTDETID
360
100000AC
  0
DICTIONARY
  5
100000AE
330
100000AD
100
AcDbDictionary
280
     1
  3
BTDETID
360
100000AF
  0
DICTIONARY
  5
100000B1
330
100000B0
100
AcDbDictionary
280
     1
  3
BTDETID
360
100000B2
  0
DICTIONARY
  5
100000B4
330
100000B3
100
AcDbDictionary
280
     1
  3
BTDETID
360
100000B5
  0
DICTIONARY
  5
100000B7
330
100000B6
100
AcDbDictionary
280
     1
  3
BTDETID
360
100000B8
  0
DICTIONARY
  5
100000BA
330
100000B9
100
AcDbDictionary
280
     1
  3
BTDETID
360
100000BB
  0
DICTIONARY
  5
100000BD
330
100000BC
100
AcDbDictionary
280
     1
  3
BTDETID
360
100000BE
  0
DICTIONARY
  5
100000C0
330
100000BF
100
AcDbDictionary
280
     1
  3
BTDETID
360
100000C1
  0
DICTIONARY
  5
100000C3
330
100000C2
100
AcDbDictionary
280
     1
  3
BTDETID
360
100000C4
  0
DICTIONARY
  5
100000C6
330
100000C5
100
AcDbDictionary
280
     1
  3
BTDETID
360
100000C7
  0
DICTIONARY
  5
100000C9
330
100000C8
100
AcDbDictionary
280
     1
  3
BTDETID
360
100000CA
  0
DICTIONARY
  5
100000CC
330
100000CB
100
AcDbDictionary
280
     1
  3
BTDETID
360
100000CD
  0
DICTIONARY
  5
100000CF
330
100000CE
100
AcDbDictionary
280
     1
  3
BTDETID
360
100000D0
  0
DICTIONARY
  5
100000D2
330
100000D1
100
AcDbDictionary
280
     1
  3
BTDETID
360
100000D3
  0
DICTIONARY
  5
100000D5
330
100000D4
100
AcDbDictionary
280
     1
  3
BTDETID
360
100000D6
  0
DICTIONARY
  5
100000D8
330
100000D7
100
AcDbDictionary
280
     1
  3
BTDETID
360
100000D9
  0
DICTIONARY
  5
100000DB
330
100000DA
100
AcDbDictionary
280
     1
  3
BTDETID
360
100000DC
  0
DICTIONARY
  5
100000DE
330
100000DD
100
AcDbDictionary
280
     1
  3
BTDETID
360
100000DF
  0
DICTIONARY
  5
100000E1
330
100000E0
100
AcDbDictionary
280
     1
  3
BTDETID
360
100000E2
  0
DICTIONARY
  5
100000E4
330
100000E3
100
AcDbDictionary
280
     1
  3
BTDETID
360
100000E5
  0
DICTIONARY
  5
100000E7
330
100000E6
100
AcDbDictionary
280
     1
  3
BTDETID
360
100000E8
  0
DICTIONARY
  5
100000EA
330
100000E9
100
AcDbDictionary
280
     1
  3
BTDETID
360
100000EB
  0
DICTIONARY
  5
100000ED
330
100000EC
100
AcDbDictionary
280
     1
  3
BTDETID
360
100000EE
  0
DICTIONARY
  5
100000F0
330
100000EF
100
AcDbDictionary
280
     1
  3
BTDETID
360
100000F1
  0
DICTIONARY
  5
100000F3
330
100000F2
100
AcDbDictionary
280
     1
  3
BTDETID
360
100000F4
  0
DICTIONARY
  5
100000F6
330
100000F5
100
AcDbDictionary
280
     1
  3
BTDETID
360
100000F7
  0
DICTIONARY
  5
D
102
{ACAD_REACTORS
330
C
102
}
330
C
100
AcDbDictionary
  0
DICTIONARY
  5
1A
102
{ACAD_REACTORS
330
C
102
}
330
C
100
AcDbDictionary
  0
DICTIONARY
  5
43
102
{ACAD_REACTORS
330
C
102
}
330
C
100
AcDbDictionary
  3
BYBLOCK
350
45
  3
BYLAYER
350
44
  3
GLOBAL
350
46
  0
DICTIONARY
  5
6B
102
{ACAD_REACTORS
330
C
102
}
330
C
100
AcDbDictionary
  3
STANDARD
350
6C
  0
DICTIONARY
  5
17
102
{ACAD_REACTORS
330
C
102
}
330
C
100
AcDbDictionary
  3
STANDARD
350
18
  0
DICTIONARY
  5
19
102
{ACAD_REACTORS
330
C
102
}
330
C
100
AcDbDictionary
  0
DICTIONARY
  5
47
102
{ACAD_REACTORS
330
C
102
}
330
C
100
AcDbDictionary
  3
SCALE100_1
350
10000023
  3
SCALE10_1
350
1000001D
  3
SCALE12_1
350
1000001E
  3
SCALE16_1
350
1000001F
  3
SCALE1_1
350
10000006
  3
SCALE1_10
350
1000000D
  3
SCALE1_100
350
10000016
  3
SCALE1_12
350
1000000E
  3
SCALE1_16
350
1000000F
  3
SCALE1_2
350
10000007
  3
SCALE1_20
350
10000010
  3
SCALE1_25
350
10000011
  3
SCALE1_3
350
10000008
  3
SCALE1_32
350
10000012
  3
SCALE1_4
350
10000009
  3
SCALE1_40
350
10000013
  3
SCALE1_5
350
1000000A
  3
SCALE1_50
350
10000014
  3
SCALE1_6
350
1000000B
  3
SCALE1_8
350
1000000C
  3
SCALE1_80
350
10000015
  3
SCALE20_1
350
10000020
  3
SCALE2_1
350
10000017
  3
SCALE32_1
350
10000021
  3
SCALE3_1
350
10000018
  3
SCALE4_1
350
10000019
  3
SCALE50_1
350
10000022
  3
SCALE5_1
350
1000001A
  3
SCALE6_1
350
1000001B
  3
SCALE8_1
350
1000001C
  0
DICTIONARY
  5
2A
102
{ACAD_REACTORS
330
C
102
}
330
C
100
AcDbDictionary
  3
2DWIREFRAME
350
2F
  3
BASIC
350
32
  3
BRIGHTEN
350
36
  3
COLORCHANGE
350
3A
  3
CONCEPTUAL
350
34
  3
DIM
350
35
  3
EDGECOLOROFF
350
3D
  3
FACEPATTERN
350
39
  3
FLAT
350
2B
  3
FLATWITHEDGES
350
2C
  3
GOURAUD
350
2D
  3
GOURAUDWITHEDGES
350
2E
  3
HIDDEN
350
31
  3
JITTEROFF
350
3B
  3
LINEPATTERN
350
38
  3
OVERHANGOFF
350
3C
  3
REALISTIC
350
33
  3
SHADED
350
42
  3
SHADED_WITH_EDGES
350
41
  3
SHADES_OF_GRAY
350
3E
  3
SKETCHY
350
3F
  3
THICKEN
350
37
  3
WIREFRAME
350
30
  3
X-RAY
350
40
  0
DICTIONARY
  5
100000FA
102
{ACAD_REACTORS
330
C
102
}
330
C
100
AcDbDictionary
  3
CEPSNID
350
10000104
  3
CEPSNTYPE
350
10000103
  3
DIMSTYLEDATA
350
1000011A
  3
FINGERPRINTGUID
350
10000105
  3
HYPERLINKBASE
350
100000FD
  3
INSUNITS
350
10000102
  3
LAYOUTDICT
350
100000FF
  3
LWETCUNION
350
10000101
  3
PLOTSETDICT
350
10000100
  3
PSVPSCALE
350
10000107
  3
PUCSBASE
350
1000010A
  3
PUCSORGBACK
350
10000110
  3
PUCSORGBOTTOM
350
1000010C
  3
PUCSORGFRONT
350
1000010F
  3
PUCSORGLEFT
350
1000010D
  3
PUCSORGRIGHT
350
1000010E
  3
PUCSORGTOP
350
1000010B
  3
PUCSORTHOREF
350
10000108
  3
PUCSORTHOVIEW
350
10000109
  3
STYLESHEET
350
100000FE
  3
TSTACKALIGN
350
100000FB
  3
TSTACKSIZE
350
100000FC
  3
UCSBASE
350
10000113
  3
UCSORGBACK
350
10000119
  3
UCSORGBOTTOM
350
10000115
  3
UCSORGFRONT
350
10000118
  3
UCSORGLEFT
350
10000116
  3
UCSORGRIGHT
350
10000117
  3
UCSORGTOP
350
10000114
  3
UCSORTHOREF
350
10000111
  3
UCSORTHOVIEW
350
10000112
  3
VERSIONGUID
350
10000106
  0
DICTIONARY
  5
1000011B
102
{ACAD_REACTORS
330
C
102
}
330
C
100
AcDbDictionary
  3
CANNOSCALE
350
10000125
  3
CMLEADERSTYLE
350
1000011D
  3
CTABLESTYLE
350
1000011C
  3
DIMASSOC
350
10000120
  3
HIDETEXT
350
10000121
  3
MSLTSCALE
350
10000126
  0
XRECORD
  5
10000122
102
{ACAD_REACTORS
330
C
102
}
330
C
100
AcDbXrecord
  1
DWGPROPS COOKIE
  2

  3

  4

  6
File was created by BTDwgCreate
  7

  8

  9

300
=
301
=
302
=
303
=
304
=
305
=
306
=
307
=
308
=
309
=
 40
0.0
 41
2459977.047806435
 42
2459977.04780647
  1

 90
        0
  0
DICTIONARY
  5
10000001
102
{ACAD_REACTORS
330
C
102
}
330
C
100
AcDbDictionary
280
     1
  3
DIM_UNITS
360
10000003
  3
DWGGEN_VERSION
360
10000002
  3
FIRST_ANGLE
360
10000005
  0
XRECORD
  5
10000124
102
{ACAD_REACTORS
330
10000123
102
}
330
10000123
100
AcDbXrecord
102
VTR_0.000_0.000_1.000_1.000_VISUALSTYLE
340
2F
102
VTR_0.000_0.000_1.000_1.000_GRIDDISPLAY
 70
     3
102
VTR_0.000_0.000_1.000_1.000_GRIDMAJOR
 70
     5
102
VTR_0.000_0.000_1.000_1.000_DEFAULTLIGHTING
280
     1
102
VTR_0.000_0.000_1.000_1.000_DEFAULTLIGHTINGTYPE
 70
     1
102
VTR_0.000_0.000_1.000_1.000_BRIGHTNESS
141
0.0
102
VTR_0.000_0.000_1.000_1.000_CONTRAST
142
0.0
  0
SORTENTSTABLE
  5
100000F9
102
{ACAD_REACTORS
330
100000F8
102
}
330
100000F8
100
AcDbSortentsTable
330
1F
  0
XRECORD
  5
10000052
102
{ACAD_REACTORS
330
10000051
102
}
330
10000051
100
AcDbXrecord
1000
KMlB
  0
XRECORD
  5
10000055
102
{ACAD_REACTORS
330
10000054
102
}
330
10000054
100
AcDbXrecord
1000
KMFC
  0
XRECORD
  5
10000058
102
{ACAD_REACTORS
330
10000057
102
}
330
10000057
100
AcDbXrecord
1000
KMBB
  0
XRECORD
  5
1000005B
102
{ACAD_REACTORS
330
1000005A
102
}
330
1000005A
100
AcDbXrecord
1000
KMFB
  0
XRECORD
  5
1000005E
102
{ACAD_REACTORS
330
1000005D
102
}
330
1000005D
100
AcDbXrecord
1000
KMJB
  0
XRECORD
  5
10000061
102
{ACAD_REACTORS
330
10000060
102
}
330
10000060
100
AcDbXrecord
1000
KM9C
  0
XRECORD
  5
10000064
102
{ACAD_REACTORS
330
10000063
102
}
330
10000063
100
AcDbXrecord
1000
KM1C
  0
XRECORD
  5
10000067
102
{ACAD_REACTORS
330
10000066
102
}
330
10000066
100
AcDbXrecord
1000
KMND
  0
XRECORD
  5
1000006A
102
{ACAD_REACTORS
330
10000069
102
}
330
10000069
100
AcDbXrecord
1000
KMJD
  0
XRECORD
  5
1000006D
102
{ACAD_REACTORS
330
1000006C
102
}
330
1000006C
100
AcDbXrecord
1000
KMZC
  0
XRECORD
  5
10000070
102
{ACAD_REACTORS
330
1000006F
102
}
330
1000006F
100
AcDbXrecord
1000
KM9B
  0
XRECORD
  5
10000073
102
{ACAD_REACTORS
330
10000072
102
}
330
10000072
100
AcDbXrecord
1000
KMxC
  0
XRECORD
  5
10000076
102
{ACAD_REACTORS
330
10000075
102
}
330
10000075
100
AcDbXrecord
1000
KMdC
  0
XRECORD
  5
10000079
102
{ACAD_REACTORS
330
10000078
102
}
330
10000078
100
AcDbXrecord
1000
JKR
  0
XRECORD
  5
1000007C
102
{ACAD_REACTORS
330
1000007B
102
}
330
1000007B
100
AcDbXrecord
1000
JKZ
  0
XRECORD
  5
1000007F
102
{ACAD_REACTORS
330
1000007E
102
}
330
1000007E
100
AcDbXrecord
1000
JKh
  0
XRECORD
  5
10000082
102
{ACAD_REACTORS
330
10000081
102
}
330
10000081
100
AcDbXrecord
1000
JKp
  0
XRECORD
  5
10000085
102
{ACAD_REACTORS
330
10000084
102
}
330
10000084
100
AcDbXrecord
1000
JMZ
  0
XRECORD
  5
10000088
102
{ACAD_REACTORS
330
10000087
102
}
330
10000087
100
AcDbXrecord
1000
JMB
  0
XRECORD
  5
1000008B
102
{ACAD_REACTORS
330
1000008A
102
}
330
1000008A
100
AcDbXrecord
1000
JMF
  0
XRECORD
  5
1000008E
102
{ACAD_REACTORS
330
1000008D
102
}
330
1000008D
100
AcDbXrecord
1000
JMJ
  0
XRECORD
  5
10000091
102
{ACAD_REACTORS
330
10000090
102
}
330
10000090
100
AcDbXrecord
1000
JMN
  0
XRECORD
  5
10000094
102
{ACAD_REACTORS
330
10000093
102
}
330
10000093
100
AcDbXrecord
1000
JMR
  0
XRECORD
  5
10000097
102
{ACAD_REACTORS
330
10000096
102
}
330
10000096
100
AcDbXrecord
1000
JMV
  0
XRECORD
  5
1000009A
102
{ACAD_REACTORS
330
10000099
102
}
330
10000099
100
AcDbXrecord
1000
KMlC
  0
XRECORD
  5
1000009D
102
{ACAD_REACTORS
330
1000009C
102
}
330
1000009C
100
AcDbXrecord
1000
KMhC
  0
XRECORD
  5
100000A0
102
{ACAD_REACTORS
330
1000009F
102
}
330
1000009F
100
AcDbXrecord
1000
KMZB
  0
XRECORD
  5
100000A3
102
{ACAD_REACTORS
330
100000A2
102
}
330
100000A2
100
AcDbXrecord
1000
KMNB
  0
XRECORD
  5
100000A6
102
{ACAD_REACTORS
330
100000A5
102
}
330
100000A5
100
AcDbXrecord
1000
KMRB
  0
XRECORD
  5
100000A9
102
{ACAD_REACTORS
330
100000A8
102
}
330
100000A8
100
AcDbXrecord
1000
KMVB
  0
XRECORD
  5
100000AC
102
{ACAD_REACTORS
330
100000AB
102
}
330
100000AB
100
AcDbXrecord
1000
JM9
  0
XRECORD
  5
100000AF
102
{ACAD_REACTORS
330
100000AE
102
}
330
100000AE
100
AcDbXrecord
1000
JM5
  0
XRECORD
  5
100000B2
102
{ACAD_REACTORS
330
100000B1
102
}
330
100000B1
100
AcDbXrecord
1000
JM1
  0
XRECORD
  5
100000B5
102
{ACAD_REACTORS
330
100000B4
102
}
330
100000B4
100
AcDbXrecord
1000
JMd
  0
XRECORD
  5
100000B8
102
{ACAD_REACTORS
330
100000B7
102
}
330
100000B7
100
AcDbXrecord
1000
JMh
  0
XRECORD
  5
100000BB
102
{ACAD_REACTORS
330
100000BA
102
}
330
100000BA
100
AcDbXrecord
1000
JMl
  0
XRECORD
  5
100000BE
102
{ACAD_REACTORS
330
100000BD
102
}
330
100000BD
100
AcDbXrecord
1000
JMp
  0
XRECORD
  5
100000C1
102
{ACAD_REACTORS
330
100000C0
102
}
330
100000C0
100
AcDbXrecord
1000
JMt
  0
XRECORD
  5
100000C4
102
{ACAD_REACTORS
330
100000C3
102
}
330
100000C3
100
AcDbXrecord
1000
JMx
  0
XRECORD
  5
100000C7
102
{ACAD_REACTORS
330
100000C6
102
}
330
100000C6
100
AcDbXrecord
1000
KMRC
  0
XRECORD
  5
100000CA
102
{ACAD_REACTORS
330
100000C9
102
}
330
100000C9
100
AcDbXrecord
1000
KMJC
  0
XRECORD
  5
100000CD
102
{ACAD_REACTORS
330
100000CC
102
}
330
100000CC
100
AcDbXrecord
1000
KMNC
  0
XRECORD
  5
100000D0
102
{ACAD_REACTORS
330
100000CF
102
}
330
100000CF
100
AcDbXrecord
1000
KMxB
  0
XRECORD
  5
100000D3
102
{ACAD_REACTORS
330
100000D2
102
}
330
100000D2
100
AcDbXrecord
1000
KMtB
  0
XRECORD
  5
100000D6
102
{ACAD_REACTORS
330
100000D5
102
}
330
100000D5
100
AcDbXrecord
1000
KMtC
  0
XRECORD
  5
100000D9
102
{ACAD_REACTORS
330
100000D8
102
}
330
100000D8
100
AcDbXrecord
1000
KM5B
  0
XRECORD
  5
100000DC
102
{ACAD_REACTORS
330
100000DB
102
}
330
100000DB
100
AcDbXrecord
1000
KMVC
  0
XRECORD
  5
100000DF
102
{ACAD_REACTORS
330
100000DE
102
}
330
100000DE
100
AcDbXrecord
1000
KMFD
  0
XRECORD
  5
100000E2
102
{ACAD_REACTORS
330
100000E1
102
}
330
100000E1
100
AcDbXrecord
1000
KM5C
  0
XRECORD
  5
100000E5
102
{ACAD_REACTORS
330
100000E4
102
}
330
100000E4
100
AcDbXrecord
1000
KMBD
  0
XRECORD
  5
100000E8
102
{ACAD_REACTORS
330
100000E7
102
}
330
100000E7
100
AcDbXrecord
1000
KM1B
  0
XRECORD
  5
100000EB
102
{ACAD_REACTORS
330
100000EA
102
}
330
100000EA
100
AcDbXrecord
1000
KMdB
  0
XRECORD
  5
100000EE
102
{ACAD_REACTORS
330
100000ED
102
}
330
100000ED
100
AcDbXrecord
1000
KMBC
  0
XRECORD
  5
100000F1
102
{ACAD_REACTORS
330
100000F0
102
}
330
100000F0
100
AcDbXrecord
1000
KMpC
  0
XRECORD
  5
100000F4
102
{ACAD_REACTORS
330
100000F3
102
}
330
100000F3
100
AcDbXrecord
1000
KMhB
  0
XRECORD
  5
100000F7
102
{ACAD_REACTORS
330
100000F6
102
}
330
100000F6
100
AcDbXrecord
1000
KMpB
  0
MATERIAL
  5
45
102
{ACAD_REACTORS
330
43
102
}
102
{ACAD_XDICTIONARY
360
10000129
102
}
330
43
100
AcDbMaterial
  1
BYBLOCK
  0
MATERIAL
  5
44
102
{ACAD_REACTORS
330
43
102
}
102
{ACAD_XDICTIONARY
360
10000127
102
}
330
43
100
AcDbMaterial
  1
BYLAYER
  0
MATERIAL
  5
46
102
{ACAD_REACTORS
330
43
102
}
102
{ACAD_XDICTIONARY
360
1000012B
102
}
330
43
100
AcDbMaterial
  1
GLOBAL
  0
ACAD_PROXY_OBJECT
  5
6C
102
{ACAD_REACTORS
330
6B
102
}
330
6B
100
AcDbProxyObject
 90
      499
 91
      505
 93
      610
310
40901902A4063FBFFFFFE056BD1B81E855B9FC0AD7A3703D0AD73F4214DD185B99185C9900AD7A3703D0AC73F90141901A02B5E8DC0F42B1CFC02B5E8DC0F42B1CFE5764000000000000300FC0
340
14
340
0
340
11
340
0
 94
        0
1001
ACAD_MLEADERVER
1070
     2
  0
MLINESTYLE
  5
18
102
{ACAD_REACTORS
330
17
102
}
330
17
100
AcDbMlineStyle
  2
Standard
 70
     0
  3

 62
   256
 51
90.0
 52
90.0
 71
     2
 49
0.5
 62
   256
  6
BYLAYER
 49
-0.5
 62
   256
  6
BYLAYER
  0
ACAD_PROXY_OBJECT
  5
10000023
102
{ACAD_REACTORS
330
47
102
}
330
47
100
AcDbProxyObject
 90
      499
 91
      503
 93
      121
310
9053130303A310000000000001650100
  0
ACAD_PROXY_OBJECT
  5
1000001D
102
{ACAD_REACTORS
330
47
102
}
330
47
100
AcDbProxyObject
 90
      499
 91
      503
 93
      113
310
90431303A310000000000000910100
  0
ACAD_PROXY_OBJECT
  5
1000001E
102
{ACAD_REACTORS
330
47
102
}
330
47
100
AcDbProxyObject
 90
      499
 91
      503
 93
      113
310
90431323A310000000000000A10100
  0
ACAD_PROXY_OBJECT
  5
1000001F
102
{ACAD_REACTORS
330
47
102
}
330
47
100
AcDbProxyObject
 90
      499
 91
      503
 93
      113
310
90431363A310000000000000C10100
  0
ACAD_PROXY_OBJECT
  5
10000006
102
{ACAD_REACTORS
330
47
102
}
330
47
100
AcDbProxyObject
 90
      499
 91
      503
 93
       41
310
903313A31500
  0
ACAD_PROXY_OBJECT
  5
1000000D
102
{ACAD_REACTORS
330
47
102
}
330
47
100
AcDbProxyObject
 90
      499
 91
      503
 93
      113
310
904313A31304000000000000244000
  0
ACAD_PROXY_OBJECT
  5
10000016
102
{ACAD_REACTORS
330
47
102
}
330
47
100
AcDbProxyObject
 90
      499
 91
      503
 93
      121
310
905313A3130304000000000000594000
  0
ACAD_PROXY_OBJECT
  5
1000000E
102
{ACAD_REACTORS
330
47
102
}
330
47
100
AcDbProxyObject
 90
      499
 91
      503
 93
      113
310
904313A31324000000000000284000
  0
ACAD_PROXY_OBJECT
  5
1000000F
102
{ACAD_REACTORS
330
47
102
}
330
47
100
AcDbProxyObject
 90
      499
 91
      503
 93
      113
310
904313A31364000000000000304000
  0
ACAD_PROXY_OBJECT
  5
10000007
102
{ACAD_REACTORS
330
47
102
}
330
47
100
AcDbProxyObject
 90
      499
 91
      503
 93
      105
310
903313A324000000000000004000
  0
ACAD_PROXY_OBJECT
  5
10000010
102
{ACAD_REACTORS
330
47
102
}
330
47
100
AcDbProxyObject
 90
      499
 91
      503
 93
      113
310
904313A32304000000000000344000
  0
ACAD_PROXY_OBJECT
  5
10000011
102
{ACAD_REACTORS
330
47
102
}
330
47
100
AcDbProxyObject
 90
      499
 91
      503
 93
      113
310
904313A32354000000000000394000
  0
ACAD_PROXY_OBJECT
  5
10000008
102
{ACAD_REACTORS
330
47
102
}
330
47
100
AcDbProxyObject
 90
      499
 91
      503
 93
      105
310
903313A334000000000000084000
  0
ACAD_PROXY_OBJECT
  5
10000012
102
{ACAD_REACTORS
330
47
102
}
330
47
100
AcDbProxyObject
 90
      499
 91
      503
 93
      113
310
904313A33324000000000000404000
  0
ACAD_PROXY_OBJECT
  5
10000009
102
{ACAD_REACTORS
330
47
102
}
330
47
100
AcDbProxyObject
 90
      499
 91
      503
 93
      105
310
903313A344000000000000104000
  0
ACAD_PROXY_OBJECT
  5
10000013
102
{ACAD_REACTORS
330
47
102
}
330
47
100
AcDbProxyObject
 90
      499
 91
      503
 93
      113
310
904313A34304000000000000444000
  0
ACAD_PROXY_OBJECT
  5
1000000A
102
{ACAD_REACTORS
330
47
102
}
330
47
100
AcDbProxyObject
 90
      499
 91
      503
 93
      105
310
903313A354000000000000144000
  0
ACAD_PROXY_OBJECT
  5
10000014
102
{ACAD_REACTORS
330
47
102
}
330
47
100
AcDbProxyObject
 90
      499
 91
      503
 93
      113
310
904313A35304000000000000494000
  0
ACAD_PROXY_OBJECT
  5
1000000B
102
{ACAD_REACTORS
330
47
102
}
330
47
100
AcDbProxyObject
 90
      499
 91
      503
 93
      105
310
903313A364000000000000184000
  0
ACAD_PROXY_OBJECT
  5
1000000C
102
{ACAD_REACTORS
330
47
102
}
330
47
100
AcDbProxyObject
 90
      499
 91
      503
 93
      105
310
903313A384000000000000204000
  0
ACAD_PROXY_OBJECT
  5
10000015
102
{ACAD_REACTORS
330
47
102
}
330
47
100
AcDbProxyObject
 90
      499
 91
      503
 93
      113
310
904313A38304000000000000544000
  0
ACAD_PROXY_OBJECT
  5
10000020
102
{ACAD_REACTORS
330
47
102
}
330
47
100
AcDbProxyObject
 90
      499
 91
      503
 93
      113
310
90432303A310000000000000D10100
  0
ACAD_PROXY_OBJECT
  5
10000017
102
{ACAD_REACTORS
330
47
102
}
330
47
100
AcDbProxyObject
 90
      499
 91
      503
 93
      105
310
903323A310000000000000010100
  0
ACAD_PROXY_OBJECT
  5
10000021
102
{ACAD_REACTORS
330
47
102
}
330
47
100
AcDbProxyObject
 90
      499
 91
      503
 93
      113
310
90433323A310000000000001010100
  0
ACAD_PROXY_OBJECT
  5
10000018
102
{ACAD_REACTORS
330
47
102
}
330
47
100
AcDbProxyObject
 90
      499
 91
      503
 93
      105
310
903333A310000000000000210100
  0
ACAD_PROXY_OBJECT
  5
10000019
102
{ACAD_REACTORS
330
47
102
}
330
47
100
AcDbProxyObject
 90
      499
 91
      503
 93
      105
310
903343A310000000000000410100
  0
ACAD_PROXY_OBJECT
  5
10000022
102
{ACAD_REACTORS
330
47
102
}
330
47
100
AcDbProxyObject
 90
      499
 91
      503
 93
      113
310
90435303A310000000000001250100
  0
ACAD_PROXY_OBJECT
  5
1000001A
102
{ACAD_REACTORS
330
47
102
}
330
47
100
AcDbProxyObject
 90
      499
 91
      503
 93
      105
310
903353A310000000000000510100
  0
ACAD_PROXY_OBJECT
  5
1000001B
102
{ACAD_REACTORS
330
47
102
}
330
47
100
AcDbProxyObject
 90
      499
 91
      503
 93
      105
310
903363A310000000000000610100
  0
ACAD_PROXY_OBJECT
  5
1000001C
102
{ACAD_REACTORS
330
47
102
}
330
47
100
AcDbProxyObject
 90
      499
 91
      503
 93
      105
310
903383A310000000000000810100
  0
ACAD_PROXY_OBJECT
  5
2F
102
{ACAD_REACTORS
330
2A
102
}
330
2A
100
AcDbProxyObject
 90
      499
 91
      501
 93
      436
310
42CC9915DA5C99599C985B595049028333333333333E33F0000000000000F90107901411070040501600405405064090741402480A0340
1001
ACAD
1000
AcDbSavedByObjectVersion
1070
     0
  0
ACAD_PROXY_OBJECT
  5
32
102
{ACAD_REACTORS
330
2A
102
}
330
2A
100
AcDbProxyObject
 90
      499
 91
      501
 93
      388
310
4150985CDA58D07406404333333333333E33F0000000000000F90107A41107004050150841D405064090741402480A0350
1001
ACAD
1000
AcDbSavedByObjectVersion
1070
     0
  0
ACAD_PROXY_OBJECT
  5
36
102
{ACAD_REACTORS
330
2A
102
}
330
2A
100
AcDbProxyObject
 90
      499
 91
      501
 93
      428
310
42109C9A59DA1D195B90C409028333333333333E33F0000000000000F9010790141107004050150841D405064090741402480A029950
1001
ACAD
1000
AcDbSavedByObjectVersion
1070
     0
  0
ACAD_PROXY_OBJECT
  5
3A
102
{ACAD_REACTORS
330
2A
102
}
330
2A
100
AcDbProxyObject
 90
      499
 91
      501
 93
      452
310
42D0DBDB1BDC90DA185B99D95104090240C333333333333E33F0000000000000F90108901411070040501508421405064090741402480A0350
1001
ACAD
1000
AcDbSavedByObjectVersion
1070
     0
  0
ACAD_PROXY_OBJECT
  5
34
102
{ACAD_REACTORS
330
2A
102
}
330
2A
100
AcDbProxyObject
 90
      499
 91
      501
 93
      500
310
4290DBDB98D95C1D1D585B10940D028333333333333E33F0000000000000F90107902409070040501000000000018199010841D405064090740C02480A0340
1001
ACAD
1000
AcDbSavedByObjectVersion
1070
     0
  0
ACAD_PROXY_OBJECT
  5
35
102
{ACAD_REACTORS
330
2A
102
}
330
2A
100
AcDbProxyObject
 90
      499
 91
      501
 93
      412
310
40D11A5B50B409028333333333333E33F0000000000000F9010790141107004050150841D405064090741402480A02677FFFFFD0
1001
ACAD
1000
AcDbSavedByObjectVersion
1070
     0
  0
ACAD_PROXY_OBJECT
  5
3D
102
{ACAD_REACTORS
330
2A
102
}
330
2A
100
AcDbProxyObject
 90
      499
 91
      501
 93
      452
310
43115919D950DBDB1BDC93D999916409028333333333333E33F0000000000000F9010790141107004050150841D405064090741402480A0350
1001
ACAD
1000
AcDbSavedByObjectVersion
1070
     0
  0
ACAD_PROXY_OBJECT
  5
39
102
{ACAD_REACTORS
330
2A
102
}
330
2A
100
AcDbProxyObject
 90
      499
 91
      501
 93
      444
310
42D19858D95C185D1D195C9B90F409028333333333333E33F0000000000000F9010790141107004050150841D405064090741402480A0350
1001
ACAD
1000
AcDbSavedByObjectVersion
1070
     0
  0
ACAD_PROXY_OBJECT
  5
2B
102
{ACAD_REACTORS
330
2A
102
}
330
2A
100
AcDbProxyObject
 90
      499
 91
      501
 93
      380
310
41119B185D240901404333333333333E33F0000000000000F9010740A907004050150841D405064090741402480A1B50
1001
ACAD
1000
AcDbSavedByObjectVersion
1070
     0
  0
ACAD_PROXY_OBJECT
  5
2C
102
{ACAD_REACTORS
330
2A
102
}
330
2A
100
AcDbProxyObject
 90
      499
 91
      501
 93
      468
310
43519B185D15DA5D1A115919D95CD0140901404333333333333E33F0000000000000F90107409019070040501600405405064090741402480A1B50
1001
ACAD
1000
AcDbSavedByObjectVersion
1070
     0
  0
ACAD_PROXY_OBJECT
  5
2D
102
{ACAD_REACTORS
330
2A
102
}
330
2A
100
AcDbProxyObject
 90
      499
 91
      501
 93
      404
310
41D1DBDD5C985D5910240902404333333333333E33F0000000000000F9010740A9070040501641D405064090741402480A1B50
1001
ACAD
1000
AcDbSavedByObjectVersion
1070
     0
  0
ACAD_PROXY_OBJECT
  5
2E
102
{ACAD_REACTORS
330
2A
102
}
330
2A
100
AcDbProxyObject
 90
      499
 91
      501
 93
      492
310
4411DBDD5C985D5915DA5D1A115919D95CD0340902404333333333333E33F0000000000000F90107409019070040501600405405064090741402480A1B50
1001
ACAD
1000
AcDbSavedByObjectVersion
1070
     0
  0
ACAD_PROXY_OBJECT
  5
31
102
{ACAD_REACTORS
330
2A
102
}
330
2A
100
AcDbProxyObject
 90
      499
 91
      501
 93
      476
310
41921A5919195B90640502408333333333333E33F0000000000000F901079024090700405020000000000001110200405405064090740C02480A0340
1001
ACAD
1000
AcDbSavedByObjectVersion
1070
     0
  0
ACAD_PROXY_OBJECT
  5
3B
102
{ACAD_REACTORS
330
2A
102
}
330
2A
100
AcDbProxyObject
 90
      499
 91
      501
 93
      428
310
42529A5D1D195C93D999914409028333333333333E33F0000000000000F9010790141107004050150A41D405064090741402480A0350
1001
ACAD
1000
AcDbSavedByObjectVersion
1070
     0
  0
ACAD_PROXY_OBJECT
  5
38
102
{ACAD_REACTORS
330
2A
102
}
330
2A
100
AcDbProxyObject
 90
      499
 91
      501
 93
      444
310
42D31A5B995C185D1D195C9B90E409028333333333333E33F0000000000000F9010790141107004050750841D405064090741402483A0350
1001
ACAD
1000
AcDbSavedByObjectVersion
1070
     0
  0
ACAD_PROXY_OBJECT
  5
3C
102
{ACAD_REACTORS
330
2A
102
}
330
2A
100
AcDbProxyObject
 90
      499
 91
      501
 93
      444
310
42D3DD995C9A185B99D3D999915409028333333333333E33F0000000000000F9010790141107004050150941D405064090741402480A0350
1001
ACAD
1000
AcDbSavedByObjectVersion
1070
     0
  0
ACAD_PROXY_OBJECT
  5
33
102
{ACAD_REACTORS
330
2A
102
}
330
2A
100
AcDbProxyObject
 90
      499
 91
      501
 93
      428
310
425499585B1A5CDD1A58D08409038333333333333E33F0000000000000F9010740A907004050150800405405064090740C02480A1B40
1001
ACAD
1000
AcDbSavedByObjectVersion
1070
     0
  0
ACAD_PROXY_OBJECT
  5
42
102
{ACAD_REACTORS
330
2A
102
}
330
2A
100
AcDbProxyObject
 90
      499
 91
      501
 93
      420
310
4194DA1859195911B40902404333333333333E33F0000000000000F9010740A41107004050150800405405064090840C02480A0B40
1001
ACAD
1000
AcDbSavedByObjectVersion
1070
     0
  0
ACAD_PROXY_OBJECT
  5
41
102
{ACAD_REACTORS
330
2A
102
}
330
2A
100
AcDbProxyObject
 90
      499
 91
      501
 93
      516
310
4454DA18591959081DDA5D1A08195919D95CD1A40902404333333333333E33F0000000000000F901074090142907004050250800405405064090740C02480A0B40
1001
ACAD
1000
AcDbSavedByObjectVersion
1070
     0
  0
ACAD_PROXY_OBJECT
  5
3E
102
{ACAD_REACTORS
330
2A
102
}
330
2A
100
AcDbProxyObject
 90
      499
 91
      501
 93
      532
310
4394DA1859195CC81BD98811DC985E5174090240C333333333333E33F0000000000000F901079024090741D01000000000000111010841D405064090740C02480A0340
1001
ACAD
1000
AcDbSavedByObjectVersion
1070
     0
  0
ACAD_PROXY_OBJECT
  5
3F
102
{ACAD_REACTORS
330
2A
102
}
330
2A
100
AcDbProxyObject
 90
      499
 91
      501
 93
      476
310
41D4DAD95D18DA1E51840502408333333333333E33F0000000000000F901079024090741D01000000000000111010B41D405064090741802480A0340
1001
ACAD
1000
AcDbSavedByObjectVersion
1070
     0
  0
ACAD_PROXY_OBJECT
  5
37
102
{ACAD_REACTORS
330
2A
102
}
330
2A
100
AcDbProxyObject
 90
      499
 91
      501
 93
      412
310
41D51A1A58DAD95B90D409028333333333333E33F0000000000000F9010790141107004050150C41D405064090741402480A0350
1001
ACAD
1000
AcDbSavedByObjectVersion
1070
     0
  0
ACAD_PROXY_OBJECT
  5
30
102
{ACAD_REACTORS
330
2A
102
}
330
2A
100
AcDbProxyObject
 90
      499
 91
      501
 93
      420
310
4255DA5C99599C985B595059028333333333333E33F0000000000000F90107901411070040501600405405064090740C02480A0340
1001
ACAD
1000
AcDbSavedByObjectVersion
1070
     0
  0
ACAD_PROXY_OBJECT
  5
40
102
{ACAD_REACTORS
330
2A
102
}
330
2A
100
AcDbProxyObject
 90
      499
 91
      501
 93
      404
310
41560B54985E51940902404000000000000E03F0000000000000F9010740501907004050150841D405064090740C02480A1B40
1001
ACAD
1000
AcDbSavedByObjectVersion
1070
     0
  0
XRECORD
  5
10000104
102
{ACAD_REACTORS
330
100000FA
102
}
330
100000FA
100
AcDbXrecord
340
0
  0
XRECORD
  5
10000103
102
{ACAD_REACTORS
330
100000FA
102
}
330
100000FA
100
AcDbXrecord
 90
        0
  0
XRECORD
  5
1000011A
102
{ACAD_REACTORS
330
100000FA
102
}
330
100000FA
100
AcDbXrecord
1000
DSTYLE
1002
{
1070
   340
340
11
1002
}
  0
XRECORD
  5
10000105
102
{ACAD_REACTORS
330
100000FA
102
}
330
100000FA
100
AcDbXrecord
  1
{77743173-7570-7474-b570-38306465b034}
  0
XRECORD
  5
100000FD
102
{ACAD_REACTORS
330
100000FA
102
}
330
100000FA
100
AcDbXrecord
  1

  0
XRECORD
  5
10000102
102
{ACAD_REACTORS
330
100000FA
102
}
330
100000FA
100
AcDbXrecord
 90
        1
  0
XRECORD
  5
100000FF
102
{ACAD_REACTORS
330
100000FA
102
}
330
100000FA
100
AcDbXrecord
340
1A
  0
XRECORD
  5
10000101
102
{ACAD_REACTORS
330
100000FA
102
}
330
100000FA
100
AcDbXrecord
 90
    10781
  0
XRECORD
  5
10000100
102
{ACAD_REACTORS
330
100000FA
102
}
330
100000FA
100
AcDbXrecord
340
19
  0
XRECORD
  5
10000107
102
{ACAD_REACTORS
330
100000FA
102
}
330
100000FA
100
AcDbXrecord
 40
0.0
  0
XRECORD
  5
1000010A
102
{ACAD_REACTORS
330
100000FA
102
}
330
100000FA
100
AcDbXrecord
340
0
  0
XRECORD
  5
10000110
102
{ACAD_REACTORS
330
100000FA
102
}
330
100000FA
100
AcDbXrecord
 10
0.0
 20
0.0
 30
0.0
  0
XRECORD
  5
1000010C
102
{ACAD_REACTORS
330
100000FA
102
}
330
100000FA
100
AcDbXrecord
 10
0.0
 20
0.0
 30
0.0
  0
XRECORD
  5
1000010F
102
{ACAD_REACTORS
330
100000FA
102
}
330
100000FA
100
AcDbXrecord
 10
0.0
 20
0.0
 30
0.0
  0
XRECORD
  5
1000010D
102
{ACAD_REACTORS
330
100000FA
102
}
330
100000FA
100
AcDbXrecord
 10
0.0
 20
0.0
 30
0.0
  0
XRECORD
  5
1000010E
102
{ACAD_REACTORS
330
100000FA
102
}
330
100000FA
100
AcDbXrecord
 10
0.0
 20
0.0
 30
0.0
  0
XRECORD
  5
1000010B
102
{ACAD_REACTORS
330
100000FA
102
}
330
100000FA
100
AcDbXrecord
 10
0.0
 20
0.0
 30
0.0
  0
XRECORD
  5
10000108
102
{ACAD_REACTORS
330
100000FA
102
}
330
100000FA
100
AcDbXrecord
340
0
  0
XRECORD
  5
10000109
102
{ACAD_REACTORS
330
100000FA
102
}
330
100000FA
100
AcDbXrecord
 70
     0
  0
XRECORD
  5
100000FE
102
{ACAD_REACTORS
330
100000FA
102
}
330
100000FA
100
AcDbXrecord
  1

  0
XRECORD
  5
100000FB
102
{ACAD_REACTORS
330
100000FA
102
}
330
100000FA
100
AcDbXrecord
 90
        1
  0
XRECORD
  5
100000FC
102
{ACAD_REACTORS
330
100000FA
102
}
330
100000FA
100
AcDbXrecord
 90
       70
  0
XRECORD
  5
10000113
102
{ACAD_REACTORS
330
100000FA
102
}
330
100000FA
100
AcDbXrecord
340
0
  0
XRECORD
  5
10000119
102
{ACAD_REACTORS
330
100000FA
102
}
330
100000FA
100
AcDbXrecord
 10
0.0
 20
0.0
 30
0.0
  0
XRECORD
  5
10000115
102
{ACAD_REACTORS
330
100000FA
102
}
330
100000FA
100
AcDbXrecord
 10
0.0
 20
0.0
 30
0.0
  0
XRECORD
  5
10000118
102
{ACAD_REACTORS
330
100000FA
102
}
330
100000FA
100
AcDbXrecord
 10
0.0
 20
0.0
 30
0.0
  0
XRECORD
  5
10000116
102
{ACAD_REACTORS
330
100000FA
102
}
330
100000FA
100
AcDbXrecord
 10
0.0
 20
0.0
 30
0.0
  0
XRECORD
  5
10000117
102
{ACAD_REACTORS
330
100000FA
102
}
330
100000FA
100
AcDbXrecord
 10
0.0
 20
0.0
 30
0.0
  0
XRECORD
  5
10000114
102
{ACAD_REACTORS
330
100000FA
102
}
330
100000FA
100
AcDbXrecord
 10
0.0
 20
0.0
 30
0.0
  0
XRECORD
  5
10000111
102
{ACAD_REACTORS
330
100000FA
102
}
330
100000FA
100
AcDbXrecord
340
0
  0
XRECORD
  5
10000112
102
{ACAD_REACTORS
330
100000FA
102
}
330
100000FA
100
AcDbXrecord
 70
     0
  0
XRECORD
  5
10000106
102
{ACAD_REACTORS
330
100000FA
102
}
330
100000FA
100
AcDbXrecord
  1
{FAEB1C32-E019-11D5-929B-00C0DF256EC4}
  0
DICTIONARYVAR
  5
10000125
102
{ACAD_REACTORS
330
1000011B
102
}
330
1000011B
100
DictionaryVariables
280
     0
  1
1:1
  0
DICTIONARYVAR
  5
1000011D
102
{ACAD_REACTORS
330
1000011B
102
}
330
1000011B
100
DictionaryVariables
280
     0
  1
Standard
  0
DICTIONARYVAR
  5
1000011C
102
{ACAD_REACTORS
330
1000011B
102
}
330
1000011B
100
DictionaryVariables
280
     0
  1
Standard
  0
DICTIONARYVAR
  5
10000120
102
{ACAD_REACTORS
330
1000011B
102
}
330
1000011B
100
DictionaryVariables
280
     0
  1
2
  0
DICTIONARYVAR
  5
10000121
102
{ACAD_REACTORS
330
1000011B
102
}
330
1000011B
100
DictionaryVariables
280
     0
  1
1
  0
DICTIONARYVAR
  5
10000126
102
{ACAD_REACTORS
330
1000011B
102
}
330
1000011B
100
DictionaryVariables
280
     0
  1
1
  0
XRECORD
  5
10000003
102
{ACAD_REACTORS
330
10000001
102
}
330
10000001
100
AcDbXrecord
 70
     1
  0
XRECORD
  5
10000002
102
{ACAD_REACTORS
330
10000001
102
}
330
10000001
100
AcDbXrecord
1040
88.0
  0
ACAD_PROXY_OBJECT
  5
10000005
102
{ACAD_REACTORS
330
10000001
102
}
330
10000001
100
AcDbProxyObject
 90
      499
 91
      509
 93
       34
310
40C8804000
  0
DICTIONARY
  5
10000129
330
45
100
AcDbDictionary
280
     1
  3
ACAD_XREC_ROUNDTRIP
360
1000012A
  0
DICTIONARY
  5
10000127
330
44
100
AcDbDictionary
280
     1
  3
ACAD_XREC_ROUNDTRIP
360
10000128
  0
DICTIONARY
  5
1000012B
330
46
100
AcDbDictionary
280
     1
  3
ACAD_XREC_ROUNDTRIP
360
1000012C
  0
XRECORD
  5
1000012A
102
{ACAD_REACTORS
330
10000129
102
}
330
10000129
100
AcDbXrecord
102
MATERIAL
148
0.0
149
0.0
149
0.0
 93
        0
 94
      127
282
     0
 72
     1
 77
     1
171
     1
175
     1
179
     1
273
     0
  0
XRECORD
  5
10000128
102
{ACAD_REACTORS
330
10000127
102
}
330
10000127
100
AcDbXrecord
102
MATERIAL
148
0.0
149
0.0
149
0.0
 93
        0
 94
      127
282
     0
 72
     1
 77
     1
171
     1
175
     1
179
     1
273
     0
  0
XRECORD
  5
1000012C
102
{ACAD_REACTORS
330
1000012B
102
}
330
1000012B
100
AcDbXrecord
102
MATERIAL
148
0.0
149
0.0
149
0.0
 93
        0
 94
      127
282
     0
 72
     1
 77
     1
171
     1
175
     1
179
     1
273
     0
  0
ENDSEC
  0
EOF
